<svg xmlns="http://www.w3.org/2000/svg" version="1.0" width="507.081" height="553.043" id="prefix__svg2"><defs id="prefix__defs4"><clipPath id="prefix__clipPath3345"><path id="prefix__rect2227" d="M222 101h109v80H222z"/></clipPath></defs><style>.prefix__land{fill:#86aae0;stroke:#fff;stroke-width:.6}</style><g id="prefix__complete_map"><path d="M432 545.25V475l64.25-42" id="prefix__corsica_separating_line" fill="none" stroke="#86aae0" stroke-width="1.5"/><path d="M445.338 488.956v2.156l1.97 1.375 3.312 1.938.218 1.562-1.968.594-3.125.594v1.344l1.156 1.187.219 3.906 4.281 1.375 1.562.375 1.375 2.157-.968 1.375-1.563.562-1.187 2.156-1.157 1.375.563 3.5 2.937-.187.782.594 2.75-1.375.781.78-1.375 2.938 1.375 1.375-2.344 1.75-1.562 3.5 4.281 1 6.062.563-2.53 2.937s-1.19-.458-1.72-.218c-.015.007-.048.022-.062.03l-.031.032-.032.031c-.003.005-.027.027-.03.032-.007.009-.026.021-.032.03-.003.006.003.027 0 .032-.005.011-.027.051-.031.063-.002.006.001.025 0 .03-.003.014-.03.05-.032.063v.063c0 .977-1.343 3.344-1.343 3.344l1.937 2.125 3.531 2.156 6.625 1.75 1.938.781 1.781.781-1.187 2.157 3.125-.188.593 1.375h3.125l.782-3.719-1.969-.406 2.75-2.906-.969-1 .188-1.75 3.531-1.938.187-2.156-2.343-.187-1.563 1.343v-1.937l3.125-.188.969-2.343.781-6.844-.594-2.938-.062-2.812-3.406 2.25-4.063.156-.344-2.812.532-.72-1.25-.874-.344-4.781-.531-.875h-2.125l-1.063-.875v-3.375l-1.406-.875-1.063-.532-2.125-2.656.157-1.594h-2.625l-.907-2.656h-3.718l-1.938-2.656.531-.875-1.218-.719-2.844.531-1.063-.687h-3.875l-.375-1.063-2.187-.406h-1.563z" class="prefix__land prefix__departement2a"/><path d="M477.963 449.894l-2.937 1.968.406 1.938 1.563 1.969-1.75 1.343.781 1.563-1.188 1.375v1.75l1.97 1.781v2.719l-1.188 2.531-1.344.594-1.563-2.156-2.75.218-.593-.406h-2.344l-2.125 1.969-.813 3.312-5.062.97-3.906 3.312-.782 2.156-1.937-.188-1-1.187-.563 3.344-1.375.562-.406 3.125.594 1.375-2.156 1.563-.594 1.562 2.187.406.375 1.063h3.875l1.063.687 2.844-.53 1.218.718-.53.875 1.937 2.656h3.718l.907 2.656h2.625l-.157 1.594 2.125 2.656 1.063.532 1.406.875v3.375l1.063.875h2.125l.531.875.344 4.78 1.25.876-.532.719.344 2.812 4.063-.156 3.406-2.25-.125-5.781 4.687-6.625v-10.938l-1.937-3.719-.594-11.718-1.375-2.157-2.531-1.937-.406-7.25 1.187-3.313-1.562-5.28-.969-4.282-.813-1.188-1.75-.968z" class="prefix__land prefix__departement2b"/><path d="M379.719 409.906l-5.469 3.125-1.406 10.5-5.781-.812-1.657 4.406 1.375 1.938-6.344 3.875-1.75 4.062 6.188.281 8.219.594 1.562 1.563h-2.937l-1.938 3.312 8.375 1.75 6.656-1.156-3.53-3.344 2.343-1.938 3.719 1.563 1.75 3.719 11.156.187 2.906-1.187.594 1.781-3.125 2.719 4.313.187-.782 1.969-1.187 1.375h9.562l4.688 1.563.469.625.187-3.875 1.406-1.594 1.781-1.063-.187-1.062-1.406-1.406h-1.406l-.907-1.063 1.594-1.438v-.53l-1.75-.876v-1.406l3.875.188.906-.72-3.375-3.187.188-3.719-2.125-1.75 1.75-3.53 4.25-2.844-3.188-2.125-2.281 1.78-5.313 1.22-4.25-.532-7.593-3.156-4.594.156-3.875-1.75-1.438-1.969-3-3.343-7.062-3-.156-.063z" class="prefix__land prefix__departement13"/><path d="M387 381.344l-2.75.219-2.125 3.312.563 3.5 3.312.406-.563 1.563-2.562.187-2.906 2.938-.781-.969.562-3.906-1.156-1.375-5.281.781-1.032 2.094.563.312 3.312 5.5v4.438l5.813 5.781v2.5l-2.25 1.281.156.063 7.063 3 3 3.344 1.437 1.968 3.875 1.75 4.594-.156 7.594 3.156 4.25.531 5.312-1.218 2.188-1.719.28-1.469-4.062-4.594h-4.437v-1.593l1.594-1.781v-1.938l-3.532-1.75-.344-2.844 1.938-.875v-2.469l-2.125-.375-.156-2.656-.031-.187-1.782-.125-2.937-2.156-.781-2.532-5.47-.406-4.093-.375-.406-2.344 1.375-2.937-2.531 2.156-3.907-.406-.781-1.375 2.719-3.688-2.719-2.562z" class="prefix__land prefix__departement84"/><path d="M457.781 413.188l-2.969.125-1.406 1.437-5.312-.188-4.594 3.344-3.156-2.125-4.969 1.594-.875 1.781-3.531 2.656-6.375-4.25-5.156 1.688-.25 1.375.093-.063 3.188 2.125-4.25 2.844-1.75 3.531 2.125 1.75-.188 3.72 3.375 3.187-.906.719-3.875-.188v1.406l1.75.875v.531l-1.594 1.438.906 1.063h1.407l1.406 1.406.188 1.062-1.782 1.063-1.406 1.594-.188 3.875.532.718 3.5 1.563.969 3.906 2.156.406 1.969-1.375 3.5-2.156 6.062.594-.188 1.562-1.968.969 4.687.219-1.156-1.188-.406-2.531 2.531-1.75 2.938.969 1.187.375.969 1.187 1.375-.969.375-2.562 1.562-1.344h4.094l1.188-1.781 2.718.781 3.125-1.344v-5.093l-4.094.187 3.125-1.937 1.563-2.156.406-3.125 5.656-.782 3.157-3.531-2.188-2.25v-1.25l-1.062-1.063 1.406-1.218-.344-1.969-2.312-.875H463.5l-2.125-2.125-.375-3.719-2.281-1.062-2.313-.156-.875-2.125 2.25-1.375z" class="prefix__land prefix__departement83"/><path d="M463.844 364.344l-2.125 3.187-3 1.781-1.063 2.125-2.656.157v1.937l-.719 1.063-1.062 2.656-6.344-.156-3-1.594-1.969 1.406-3.687-.187-.906 1.25h.906l.531 3.344-.906.375-3.344-2.125v-1.25l-1.938-1.594H431.5v1.781l-1.594.344-3.375 1.937-2.125 3.563-.531 1.75 1.25.344.188 2.843h-1.25l-1.938-1.781-1.063.188.532 1.593 3 3.344-1.938.719-1.406-.875h-3.563l-3 2.812-.03-.031-.126 1.156-1.156-1.375-1.563-1.375-1 2.938-1.75 1.562-.75-.062.032.187.156 2.656 2.125.375v2.47l-1.938.874.344 2.844 3.531 1.75v1.938l-1.593 1.78v1.594h4.437l4.063 4.594-.031.094 5.156-1.688 6.375 4.25 3.531-2.656.875-1.781 4.969-1.594 3.156 2.125 4.594-3.344 5.312.188 1.406-1.438 2.97-.125.062-.03-.719-1.782.875-1.063-.344-1.406h2.813l.719-.875 2.656-1.437 2.125 1.437 1.406-.906-3.344-3-3.562-3.344-1.219-.375-.188-2.656-2.125-3.156.72-4.594 1.062-2.5 1.937-1.594.188-2.469 2.656-1.406.406-.156v-3.781l2.75-.375-1.562-1.375-1.969-.594-.969-2.531.781-1.75 3.5-3.719-.562-2.75.5-.531-2.531-.125z" class="prefix__land prefix__departement04"/><path d="M463.906 381.875l-.406.156-2.656 1.406-.188 2.47-1.937 1.593-1.063 2.5-.719 4.594 2.125 3.156.188 2.656 1.219.375 3.562 3.344 3.344 3-1.406.906-2.125-1.437-2.656 1.437-.72.875h-2.812l.344 1.406-.875 1.063.719 1.781-2.313 1.406.875 2.125 2.313.157 2.281 1.062.375 3.719 2.125 2.125h1.219l2.312.875.344 1.969-1.406 1.219 1.062 1.062v1.25l2.188 2.25.156-.188.188-4.468 3.906.781 1.375-1.781 1.969.406.187-6.063 4.5-.375 3.906-3.53h3.5l.188-2.157 3.531-2.125-1.969-4.5 2.938-2.531-.594-2.938 4.313-1.375 1.156-4.281-.563-2.938-1-1.75-.781-2.562-2.906.219-9.188 3.312h-2.937l-5.063-4.094-5.094-1.375H468v-3.53L463.906 382v-.125z" class="prefix__land prefix__departement06"/><path d="M447.344 339.156l-1.75.781-.406 2.938-3.5.406-.594-2.75-1.156-1.156-3.532.375-1.375 1.188-.781 4.093.594.969 4.094.406.78 2.531 1.563.782V354l-3.719-.188-1.562 1.75-4.469-.78-2.531 2.156-1.781-.782-2.531 1.969.968 1.75-1.562 1.563h-4.875v2.343l1.562.781-.594 1.375-3.312 1.344-4.094.406-1.187 3.72-.188 2.343 2.156 1.75-2.156 2.531-2.719-1.375-3.125-.187-.406 1.75 1.969 1.375-2.375 1.562.813 3.313 6.625 1.781 1.187 2.531 1.938.375-.657 6.094.031.031 3-2.812h3.563l1.406.875 1.938-.719-3-3.344-.531-1.594 1.062-.187 1.938 1.781h1.25l-.188-2.844-1.25-.343.531-1.75 2.125-3.563 3.375-1.937 1.594-.344v-1.781h1.063l1.937 1.594v1.25l3.344 2.125.906-.375-.531-3.344h-.906l.906-1.25 3.687.187 1.969-1.406 3 1.594 6.344.156 1.062-2.656.719-1.063v-1.937l2.656-.156 1.063-2.125 3-1.782 2.125-3.187 2.531.125 1.844-2 2.125.187v-1.75l-2.719-1.375-.594-5.656-2.156-.781-2.719.406-5.094-2.563-.78-5.843-2.907-.969-1-1.969-1.281-2.812-3.75-.188z" class="prefix__land prefix__departement05"/><path d="M320.781 352.25l-5.469 1.969-1.562 3.5-3.5-2.344-2.75 8.594-2.813 6.469 4.094 5.03-.281 3.876 2.75 1.937v4.688l.844 6.625 3.312 1.406-.281 2.188 4.688-.813 1.656.813-1.031.906 6.03 4.031 5.157-1.063.875-1.25-.719-1.75 2.125-.53 3 2.812 5.125.531 2.313-3.531v-3l1.406-1.594-1.25-.344v-4.062l-2.813-3 2.313-.375 1.219-1.063.969-1.875-.97-.594.563-4.125-3.312-3.593-1.375-7.188-4.969-6.344-3.625.875-.781-2.718h-1.969l-.375 2.344-5.063 1.562-3.53-9z" class="prefix__land prefix__departement48"/><path d="M301.625 247.969l-2.719 3.5-1.562.187-1.75 1.781-1.969-2.156-5.25 5.281v3.125l.969.782.187 1.562-2.719 2.125-2.562-.781-4.875 1-2.531 2.906-.938 2 .156-.031 2.344 3.313v2.343l1.344 1.75 1.375-1.75 1.563 2.75 2.156.781L287 283.5l.094 1.469 2.969 2.312 1.593-.719 1.25-3 1.219-.343v-1.594l2.125-.188.188 1.063 2.656-3h3l.531 1.063-1.406 1.937 2.094 2.313.375 1.406 4.937 2.844 6 .875 1.781-.188 2.656.531 2.282-1.406 1.781.875.344 2.469 2.312.531 3-.156.875 2.125 2.75 1.094.094-.97 4.688-.218-.375-11.125-1.375-2.719.562-2.156 3.25-.563.094-.218 4.094-3.125.187-7.625-1.375-1.938h-3.125l-1.156-1.562h-3.313l-.969-1.188v-2.937l-3.937-7.406-1.938-1.375-3.718 5.093-1.563.375-.594-2.531-1.75-.781-.78 1.562H316.5l-.406-1.75-1.969 1.156L312 255l-2.344-2.563-3.344-1.562-.187-2.531-4.5-.375z" class="prefix__land prefix__departement03"/><path d="M346.188 381.031l-.97 1.875L344 383.97l-2.313.375 2.813 3v4.062l1.25.344-1.406 1.594v3l-2.313 3.531-5.125-.531-3-2.813-2.125.531.719 1.75-.875 1.25-5.156 1.063-6.031-4.031-1.157 1.031v2.781l-2.219.531.563 2.22 2.75.562h3.031l.844 3.844-3.594 1.656v1.75l2.813.969v1.593l1.25.719 1.062-.906h1.406l.72 1.594h2.124l1.063-3.72h1.75l2.656-3.343 3.188.344.53 4.594 1.22 1.437 1.968-1.063 3.344 1.75 1.25 2.125 5.813 3.532 2.125 4.969v2.625l-3.72 2.125-2.406 2.156 3 .219v3.906l4.47-.219 2.406.125 1.75-4.063 6.343-3.875-1.375-1.937 1.656-4.406 5.782.812 1.406-10.5 7.719-4.406v-2.5l-5.813-5.781v-4.438l-3.312-5.5-6.906-3.875-.532 3.031-2.781.282-.813-3.031-2.78.53-.532 3.876-2.219-.813-4.687-3.062-2.219 1.125v-5.531l-3.188-1.907z" class="prefix__land prefix__departement30"/><path d="M274.25 438.469l-.281 3.594-3.594-1.125H266.5l.281-1.375-1.937.28-4.125 1.376-1.375-2.5-2.781 2.5.843 1.937-3.062 1.375-.531 3.031-2.5 1.125 2.218 2.47-.562 1.656 9.687 4.687.813 6.656v3.594l.562 4.688h-4.969l-1.375 1.937 6.344 5.25 3.594-1.938 4.406 5.25-.656.063.844.5 7.937-3.875-1.937-2.844-.156-3.344h18.53l-.343-2.5 4.25-2.28 4.938 3.874L308 473.72l-.156-5.594.219-6.438-2.344.188-1.969-2.906 1.563-2.563 3.312 3.125 2.938-2.344 1.968-1.937.25-2.063-2.5-.093-.875-2.813-2.469-.187-2.312-3.375-1.781.187-2.094-1.25-.375-3-1.063.531.532 2.125h-2.469l-.188 3.532-3.687 1.25-1.781-3.719-2.469 1.594-2.125-1.594-1.063-2.469 1.782-2.125L288 439.5l-.219.063h-5.812l-6.063-1.094h-1.656z" class="prefix__land prefix__departement11"/><path d="M335.5 408.375l-2.656 3.344h-1.75l-1.063 3.719h-2.125l-.719-1.594h-1.406l-1.062.906-1.25-.719v-1.594l-2.813-.968v1.031l-3.312.531-1.656 1.406.53 3.313h-3.03l-3.032-1.656H308.5v1.937l.281 5.781h-4.968l-1.125 2.22-7.188 2.468-2.75-1.906-1.656 2.469-.813 2.75 3.031 2.78-1.125 3.594L288 439.5l.844 2.281-1.781 2.125 1.062 2.469 2.125 1.594 2.469-1.594 1.781 3.719 3.688-1.25.187-3.531h2.469l-.531-2.125 1.062-.532.375 3 2.094 1.25 1.781-.187 2.313 3.375 2.468.187.875 2.813 2.5.094.125-1.063 7.031-2.156.782-1.75 5.469-.188 1.75-2.156 10.562-8.406 6.625-4.688 2.688.188 2.406-2.156 3.719-2.125v-2.625l-2.125-4.97-5.813-3.53-1.25-2.125-3.344-1.75-1.969 1.062-1.218-1.438-.531-4.593-3.188-.344z" class="prefix__land prefix__departement34"/><path d="M300.5 468.656l-4.25 2.281.344 2.5h-18.531l.156 3.344 1.937 2.844-7.937 3.875-.844-.5-6.531.469-.813 1.656-3.312.844-2.219 1.937-6.063 1.406.344 2.063 2.938 2.75 5.844 1.563.187 3.5 3.125 2.75 2.344-.407 3.344-4.094 4.093-.78 6.438 2.156 5.469 4.687 1.562-1.969h1.375l1.375.969 1.156-.563.188-2.75 5.875-1.375 1.937-2.53 2.938-.97h4.094l2.562 2.72 3.125.218v-3.125l-1.563-2.156-2.75-1.188L308 473.72l-2.563-1.188-4.937-3.875z" class="prefix__land prefix__departement66"/><path d="M285.844 323.719l-.594 2.156.969 2.344-1.188 1.375h-1.937l-1.969-2.156-1.75-.97-.188 5.47-3.53 2.156-2.532 3.5.594 3.531-.781 1.563-1 3.125h-1.563l-1.563 1.937 1.188 1.188.781 1.937-2.531 1.781 1.031 6.531 3.313 2.47-2.5 5.812 2.5 1.094-1.094 3.312 2.188.281 1.656-2.75h2.781l.531.813h6.094l1.094-2.469 1.375-.563.562-4.406h1.375v-4.687l5.531-4.719.563.844.531 3.594 3.875-.563.844 5.531h1.906l.563 5.531 1.719 2.125 2.812-6.468 2.75-8.594 3.5 2.344 1.563-3.5 5-1.813v-1.656l-1.063-1.594-2.125-1.25 1.063-1.594-.907-.875 1.063-.343 1.25-1.063-2.125-.187-1.063-1.406-.344-3.72-1.25-1.25-.875-3.156H309.5l-.875-2.5-1.406-.156-.719 1.406-2.813-.187-2.656-4.063-1.062-.156-2.125-1.062-1.25 1.219h-3.156l-1.594-3.344-6-1.75z" class="prefix__land prefix__departement15"/><path d="M317.813 326.344l-1.407.719v1.218l-2.125.188-1.937 1.594-3.531.53-.813 1.157.625.063.875 2.5h4.438l.875 3.156 1.25 1.25.343 3.719 1.063 1.406 2.125.187-1.25 1.063-1.063.344.906.875-1.062 1.593 2.125 1.25 1.063 1.594v1.656l.468-.156 3.531 9 5.063-1.563.375-2.343h1.969l.781 2.719 3.625-.875 4.5 5.75 2.813-4.47 5.062-3.718h4.688l1.562-4.875 3.125-.219.219-3.687H361l-.563-1.375-.78-2.531 1.156-1.97 2.75-1.156 1.156-4.687-2.531-2.938-3.125.188.375-3.719-6.25-2.719-2.125.188-4.313 3.531-3.938-1.281-.78.75-2.47-.719-1.75-1.781-1.062 2.125-3.031-.156-1.406-1.25-1.063 2.469-1.938-.875-1.25-2.313h-1.593l-1.406-1.219-2.125.875-2.47.188-1.406-.906-.875.53-.375-.874z" class="prefix__land prefix__departement43"/><path d="M299.094 279.5l-2.656 3-.188-1.063-2.125.188v1.594l-1.219.344-1.25 3-1.594.718-2.968-2.312.281 4.594 1.563 1.937.78 3.719-2.343 1.75-.563 2.75-2.156 1.156-3.719 2.156.375 1.75 4.5 4.5.407 2.75-1.781 2.906v2.75l1.187 1.375.594 3.313-.375 1.344 6 1.75 1.594 3.344h3.156l1.25-1.22 2.125 1.063 1.062.156 2.656 4.063 2.813.188.719-1.407.781.094.813-1.156 3.53-.531 1.938-1.594 2.125-.188v-1.219l1.406-.718.375.875.875-.531 1.407.906 2.469-.188 2.125-.875 1.406 1.219h1.594l1.25 2.313 1.937.875 1.063-2.47 1.406 1.25 3.031.157 1.063-2.125 1.75 1.781 2.468.719.781-.75-1.53-.5-.594-2.344 3.718-3.5-1.75-6.437-5.094-3.344-2.125-5.063-2.343-3.125.594-4.312 1.75-1.75-3.125-2.531.093-.781-2.75-1.094-.875-2.125-3 .156-2.312-.531-.344-2.469-1.781-.875-2.281 1.406-2.657-.531-1.781.188-6-.875-4.938-2.844-.375-1.406-2.093-2.313 1.406-1.938-.531-1.062h-3z" class="prefix__land prefix__departement63"/><path d="M179.219 428.531l-1.938 1.031.344.032 3.313 5.469-2.157 1.968 1.563 2.344 2.344 3.5-1.938 2.531-3.125 7.031-5.281 4.5 1.375 2.75-1.188.782-2.906-.594-.813 6.438-1.562 1.187-.313 4.031.5-.281 3.313 1.969 3.906 2.937.375 2.344 3.125 2.531h2.563l6.437-2.75 2.719 3.125 3.719 1 1.375-2.344 1.75.782 3.781.25-.25-10.5h1.969l1.75.875 1.25-1.219-.188-1.938 2.469-1.437-.875-3.688-1.063-.906-2.125.719 1.063-1.781-.531-2.281-3.188-2.313.188-1.594 1.781-3 2.281-.875v-1.25l1.406-2.125.938-1.312-3.563-1.844h-4.78l-.72-1.438h-2.468l-.719-1.593h-2.281l-.719.719h-2.656l-.156-1.594-2.125-1.406.718-.72.344-1.75-.531-.53-1.063-2.844-2.312-.344-2.281-1.25.156-3.344h-3z" class="prefix__land prefix__departement65"/><path d="M172.156 428.875l-2.812 1.594-5.656-.188-.532-.875-3.719 1.25-2.843.875-2.125-1.594-2.281.72-.72-.907h-2.812l-1.781.906-4.594-.187-2.469 1.937-4.437-.344-.875 1.25-1.063-.375 1.407-1.406-2.469-1.937-3 2.656-5.125.344-5.625-2.813-.813 1.438-4.5 5.469-3.5 1.375-2.53.375v2.156l2.343 2.156 3.5.188.188 2.53 2.75.22.78-1.782 3.72 1.563 2.343.594.563 2.343-1.344 1.188v3.687l-2.75 1.375-.188 1.75 1.75 1.969 3.126.969.593-2.938 1.75-1.937-.187 2.531 1.375 1.969h3.5l1.562 2.125 4.688.781 4.5 2.75h7.406l.406 4.094 5.063 3.906 1.969 2.344 2.156-1.156 1.937-.407.969.969 1.781-.969 3.406-1.875.313-4.031 1.563-1.188.812-6.437 2.906.594 1.188-.781-1.375-2.75 5.281-4.5 3.125-7.032 1.938-2.531-2.344-3.5-1.563-2.344 2.156-1.969-3.312-5.468-5.281-.375-.188-.344z" class="prefix__land prefix__departement64"/><path d="M139.813 374.438l-6.188 3.187-1.594.063-3.469 18.562-4.5 17.188-1.374 6.656-1.157 4.687-2.906 5 5.625 2.813 5.125-.344 3-2.656 2.469 1.937-1.406 1.406 1.062.375.875-1.25 4.438.344 2.468-1.937 4.594.187 1.781-.906h2.813l.719.906 2.28-.719 2.126 1.594 2.844-.875 3.718-1.25.531.875 5.657.188 2.812-1.594-1.375-2.406 1.375-3.719 1.938-2.531-.594-3.313 1.563-1.562-2.313-3.906 1.938-2.344 2.156-.406 1.937.78 2.75-2.343.969 2.938.969 1.375 2.156-.594-.188-2.531.625-1.375-.468-1.22.531-3.874 2.125-2.125-1.063-1.25-2.312-.188-2.656-1.031-3.875.344-.719-4.25-2.469-3-1.062-.344.375 3.531v1.063l-3.375.156-3.531-1.219-.72-4.437-2.468-2.656-1.75-.157-.188-1.594-1.937-1.25-3.188-.875.875-1.062v-1.063l-1.062-.875-1.219-1.062-3.562.531-2.094 1.75-1.438.188-2.28-1.594-3.376 1.406-1.594-1.062 1.438-1.75.156-2.313-3.344-1.219z" class="prefix__land prefix__departement40"/><path d="M141.25 315.219l-3.125 4.687-.969 16.406-2.531 16.594-1.781 12.875-.188 3.344 1.375-4.5 2.719-3.531 3.906 3.531.406 1.156 1.157 1.563-4.875.219-.781-1.188-1.938.781-.406 2.938-2.156 2.937v4.469l-.032.188 1.594-.063 6.188-3.188 3.343 1.22-.156 2.312-1.438 1.75 1.594 1.062 3.375-1.406 2.281 1.594 1.438-.188 2.094-1.75 3.562-.531 1.219 1.063 1.063.875v1.062l-.875 1.063 3.187.875 1.938 1.25.187 1.593 1.75.156 2.469 2.657.719 4.437 3.53 1.219 3.376-.156v-1.063l-.375-3.531 1.062.344 2 2.437 3.125-.5 1.438-1.406-.188-1.938-1.25-1.062.375-1.969h1.938l1.937-1.219-.875-1.78-.531-2.657 1.406-2.469 3-4.594 1.781-2.125 1.594-.53.344-1.75-2.125-.188-.875-1.938.688-1.937 2.5-.531 1.75-.532 2.062-.281-.125-.094-.156-3.875 1.937-1.406-2.469-1.594-2.468 3-6.031.188-.532-1.438-1.75-.875 1.406-1.781v-1.938l-.718-1.062v-1.063l1.781-1.062.531-3.156 1.063-2.844-1.063-1.594h-1.937l-1.031-1.219-1 2.094-1.938-1.375-2.75 1.375-2.344-.375-4.469-4.5-2.75-.187-.78-6.25-5.095-.594-.187-2.938-.969.97h-5.781l.281 1.25 1.375 5.656.375 5.656-.969 1.562-.968-4.687-2.75-10.719-9.969-9 .219-4.094-1.969-.187z" class="prefix__land prefix__departement33"/><path d="M209.844 310.469l-1.75 3.125-2.75.375-.188 4.687-9.187 6.25-.188 6.844-3.531 3.5-1.938 1.781-3.906-.406-2.156 3.719-.563 1.219 1.032 1.218h1.937l1.063 1.594-1.063 2.844-.531 3.156-1.781 1.063v1.062l.719 1.063v1.937l-1.407 1.781 1.75.875.531 1.438 6.032-.188 2.469-3 2.468 1.594-1.937 1.406.156 3.875 2.844 1.969.344 3.688 3 1.062 1.78-1.594h3.876l2.125-1.75 1.25.188.344 1.406h3.906l.875-1.063 1.406.188 1.594 1.75v1.25l-1.406.875.53 1.25 1.938.156 2.469-2.281h2.125l1.406 1.594 3.063 1.281.187-.5 1.781-1.75.188-2.938 4.281-.375 2.75-3.906-1.187-.406-.188-2.125 3.313-.406.219-1.938 1.562-1 1.75-3.125-1.75-1.937v-2.156l1.344-1.157-1.75-2.75.187-4.281-4.281.188-1.75-1.188 1.563-1.938-2.157-1.75 1.563-1.968-1.563-.781v-2.72l3.906-3.53-2.156-1.75-1.156-2.938-4.125-.594-1.375-.969 2.938-1.375-.97-1.343-4.28-.594-1-3.906-6.25-.594-1.375 1.969-1.344.375-1.781-2.344.812-2.156-1-1.938-5.656-.187z" class="prefix__land prefix__departement24"/><path d="M195.25 363.375l-2.063.281-1.75.531-2.5.532-.687 1.937.875 1.938 2.125.187-.344 1.75-1.594.531-1.78 2.125-3 4.594-1.407 2.469.531 2.656.875 1.781-1.937 1.22h-1.938l-.375 1.968 1.25 1.063.188 1.937-1.438 1.406-3.125.5.469.563.719 4.25 3.875-.344 2.656 1.031 2.313.188 1.062 1.25-2.125 2.125-.531 3.875.469 1.219.75-1.563 2.312 1.969 3.125-3.125 1.375 1.937 3.313-.594 3.53-.375 1.563-2.75 5.844-.562 2.938 2.906 1-.969 1.937-.593-.781-2.719 2.937-.781 3.719-.781-.813-2.344 1.188-1.375.969-3.719-2.156-2.344 1.375-4.469 2.937 1.75 4.313-.78-1.97-4.313-1.562-5.844 3.906-.188.782-2.062-3.063-1.281-1.406-1.594H222l-2.469 2.281-1.937-.156-.531-1.25 1.406-.875v-1.25l-1.594-1.75-1.406-.188-.875 1.063h-3.906l-.344-1.406-1.25-.188-2.125 1.75h-3.875L201.313 370l-3-1.063-.344-3.687-2.719-1.875z" class="prefix__land prefix__departement47"/><path d="M247.469 347.313l-4.156 1.937-.594.094.125.187-1.344 1.156v2.157l1.75 1.937-1.75 3.125-1.563 1-.218 1.938-3.313.406.188 2.125 1.187.406-2.75 3.906-4.281.375-.188 2.938-1.78 1.75-.97 2.563-3.906.187 1.563 5.844 1.656 3.625 2.5-.094.156 1.031-1.406 1.594 1.063 2.125h1.593l1.75 1.938h1.594l1.25-1.407.344.375v1.75l.531 2.313 3.719.156 3-3.188 1.594-.156.53.875.876 1.938h1.437l.531-3.531 3 .375 1.75-2.125 2.844.687 4.25-1.938.031.375 1.375-1.437-1.78-2.656-.688-3.531 2.281-1.938 1.063.344 3.187-3.531 1.75.187.719-.906h3.531l1.25-1.406.344-1.094-1.594-.219 1.094-3.313-2.5-1.093 2.5-5.813-3.313-2.469-1.125-7.187-3.031-.813-2.219 2.188-1.094-1.938-3.312 3.313-2.219.281-3.844-5.5-4.968-2.219z" class="prefix__land prefix__departement46"/><path d="M237.219 446.375l-1.25.875-.531 1.063 2.468 1.78.719 1.25-.531 1.032-4.25.375-1.219 1.75.156.531 1.594.531.906 1.25-1.062 1.75-1.25-.156-1.938-1.781-2.312-.688-2.281.157-4.063 2.469.156 3.375 1.063.718-.688 2.625-4.625 1.25-1.75 2.125v3.531l.719 1.063-1.656 1.531 1.062.594 6.031 1.156h2.563l3.313 4.313 8.406-.406 3.312 5.28 2.938-1.187 8.594 1.188.625 3.594 6.062-1.407 2.219-1.937 3.312-.844.813-1.656 7.187-.531-4.406-5.25-3.594 1.937-6.344-5.25 1.375-1.938h4.97l-.563-4.687v-3.594l-.813-6.656-9.687-4.688.562-1.656-1.844-2.062-1.562.656-2.125.344-3.906-1.781-1.063-.344 1.594 1.937-.688 1.594-3.375-.344-.156-1.781-1.969-2.656-1.218-.344z" class="prefix__land prefix__departement09"/><path d="M207.875 401.875l-5.844.563-1.562 2.75-3.531.375-3.313.593-1.375-1.937-3.125 3.125-2.313-1.969-1.375 2.938.188 2.53-2.156.594-.969-1.375-.969-2.937-2.75 2.344-1.937-.781-2.156.406-1.938 2.344 2.313 3.906-1.563 1.562.594 3.313-1.938 2.531-1.375 3.719 1.563 2.75 4.937.344 1.938-1.032h3l-.156 3.344 2.28 1.25 2.313.344 1.063 2.844.531.53-.344 1.75-.719.72 2.125 1.406.157 1.594h2.656l.719-.72h2.281l.719 1.594h2.469l.718 1.438h4.781l3.563 1.844.313-.438 1.937-1.062 3.531-4.594 6.563.531 2.812 1.938.906-1.25 1.407-4.219 1.75-4.063 3.719-1.593 1.78-.719-.53-1.594-1.782-.187-.687-1.75h-1.438l-2.281-2.313.156-1.594-3-3-.531-1.906-1.938.844-.53-1.063 1.25-1.937-1.438-1.406v-2.469l-1.219-1.25-3.906-.188v-2.28l2.125-1.594v-1.782l2.312-1.062-1.25-.688-1.406.688h-2.844l-.875-.813-.469.156-1 .97-2.937-2.907z" class="prefix__land prefix__departement32"/><path d="M245 412.438l-2.844 1.062-.875 1.406-1.062-1.219-1.938-.187-.375 1.781-1.219.5 1.75.906-1.218 1.938-4.438 1.25-1.937-2.313h-1.75l-1.438.875h-5.125l-.531.22.531 1.906 3 3-.156 1.593 2.281 2.313h1.438l.687 1.75 1.781.187.532 1.594-1.781.719-3.72 1.594-1.75 4.062-1.405 4.219-.907 1.25-2.812-1.938-6.563-.531-3.531 4.594-1.938 1.062-1.25 1.75-1.406 2.125v1.25l-2.281.875-1.781 3-.188 1.594 3.188 2.313.531 2.28-1.063 1.782 2.125-.719 1.063.906.875 3.688-2.469 1.438.188 1.937-1.25 1.219-1.75-.875h-1.969l.25 10.5 7.938.531.406-9.594 2.719.406 4.03 2.344 1.657-1.531-.719-1.063v-3.53l1.75-2.126 4.625-1.25.688-2.625-1.063-.719-.156-3.375 4.063-2.468 2.28-.156 2.313.687 1.938 1.781 1.25.156 1.062-1.75-.906-1.25-1.594-.53-.156-.532 1.219-1.75 4.25-.375.531-1.031-.719-1.25-2.469-1.781.532-1.063 1.25-.875 1.219.344 1.968 2.656.156 1.781 3.375.344.688-1.594-1.594-1.937 1.063.344 3.906 1.78 2.125-.343 1.563-.656-.375-.406 2.5-1.125.53-3.032 3.063-1.375-.844-1.937 2.782-2.5 1.375 2.5 4.125-1.375.781-.125.063-1.281v-2.5l-2.125.375-2.657-.72-2.312-2.812-.875-1.25-4.594-1.937-1.063-1.594 1.407-.531v-1.938l-1.406-1.594-1.782-2.843-.156-2.469-.531-.344-2.125-2.5-.875-2.625-1.594-.719z" class="prefix__land prefix__departement31"/><path d="M220.188 384.688l-1.375 4.468 2.156 2.344-.969 3.719-1.188 1.375.813 2.344-3.719.78-2.937.782.781 2.719-1.469.437.875.813H216l1.406-.688 1.25.688-2.312 1.062v1.781l-2.125 1.594v2.281l3.906.188 1.219 1.25v2.469l1.437 1.406-1.25 1.938.531 1.062 2.47-1.063h5.124l1.438-.875h1.75l1.937 2.313 4.438-1.25 1.219-1.938-1.75-.906 1.218-.5.375-1.781 1.938.188 1.062 1.218.875-1.406 2.844-1.063 1.281.594 1-1.656-1.75-1.938h3.344l1.063-1.937 2.312-2.125h-2.313l.72-3 6-.719 2.312-1.406 2.812-1.063.906-.906-1.093-2.812 1.594-3.188-2.813-.187-.344-4.406-4.25 1.937-2.844-.688-1.75 2.125-3-.375-.53 3.532h-1.438l-.875-1.938-.531-.875-1.594.156-3 3.188-3.719-.156-.531-2.313v-1.75l-.344-.375-1.25 1.406h-1.594l-1.75-1.937h-1.594l-1.062-2.125 1.406-1.594-.156-1.031-2.5.094.313.687-4.313.781-2.938-1.75z" class="prefix__land prefix__departement82"/><path d="M294.688 353.375l-5.532 4.719v4.687h-1.375l-.562 4.406-1.375.563-1.094 2.469h-6.094l-.531-.813h-2.781l-1.656 2.75-.594-.062-.344 1.094-1.25 1.406h-3.531l-.719.906-1.75-.188-3.188 3.532-1.062-.344-2.281 1.938.687 3.53 1.781 2.657-1.375 1.438.313 4.03 2.813.188-1.594 3.188 1.25 3.187 1.594-.906.718 1.594 2.281-2.281 3.375-.188 3.344 2.469 5.844 1.062 2.125 3.719 3 1.406 1.594 4.063-.188 1.594 1.938 3.562v1.938L292 421.28l3.375 1.75 2.125-.531 1.063-1.406 1.593.375 3.656 2.344H308.781l-.281-5.782v-1.937h1.656l3.031 1.656h3.032l-.531-3.313 1.656-1.406 3.312-.531v-2.781l3.594-1.656-.844-3.844h-3.031l-2.75-.563-.563-2.219 2.22-.53v-2.782l2.187-1.938-1.656-.812-4.688.813.281-2.188-3.312-1.406-.844-6.625v-4.688l-2.75-1.937.281-3.875-5.812-7.156-.563-5.532H300.5l-.844-5.531-3.875.563-.531-3.594-.563-.844z" class="prefix__land prefix__departement12"/><path d="M270.813 396.875l-3.375.188-2.282 2.28-.719-1.593-1.593.906-.156-.375-.907.906-2.812 1.063-2.313 1.406-6 .719-.719 3h2.313l-2.313 2.125-1.062 1.938h-3.344l1.75 1.937-1 1.656.313.125.875 2.625 2.125 2.5.531.344.156 2.469 1.781 2.844 1.407 1.593v1.938l-1.406.531 1.062 1.594 4.594 1.937.875 1.25 2.312 2.813 2.656.719 2.125-.375v2.5l-.062 1.28 1.156-.156-.281 1.375h3.875l3.594 1.125.281-3.593h1.656l6.063 1.094h5.812l4.406-1.375 1.125-3.594-3.03-2.781.812-2.75 1.656-2.47 2.75 1.907 7.188-2.469 1.125-2.219-3.657-2.343-1.594-.375-1.062 1.406-2.125.531-3.375-1.75-3.531-4.594v-1.937l-1.938-3.563.188-1.593-1.594-4.063-3-1.406-2.125-3.719-5.844-1.062-3.344-2.469z" class="prefix__land prefix__departement81"/><path d="M383.281 262.594l-2.156.219-1.375 2.53-3.688 14.438-.53 1.188-.376 4.562-1.062 1.469v6.594l-.625 1.5 3.812 2.312 1.5.219 2.344 2.125.406 3.406 2.563-.844 3.969 1.157.062-.75h1.906l2.75 2.562 2.563-1.281 1.281-3.813 1.281-1.5 1.688.22 1.687 1.5.875 2.75 7.844 9.562 2.344-1.688.406-3.625 2.563-.437v-6.375l1.28-1.063.407-5.719.5.407-.063-2.094-1.062-1.938.438-5.5 1.906 1.063 1.062-1.938 1.906-.625 1.97-1.562h-2.126v-3.719l2.344-1.375 3.5-.375.219-1.969-1.188-.78 2.938-3.72-.406-1.156-3.344-1.781-8.125 8.938h-5.656v-2.344l-3.125-1.563-3.72 4.094-2.937.406v-2.75l-2.531-1.156-3.906-5.469-3.531-1.375-1.157-2.531-1.969-.406-1.937 1.375-1.563.406-2.156-1.781z" class="prefix__land prefix__departement01"/><path d="M397.906 298.688l-1.281 1.5-1.281 3.812-2.563 1.281-2.75-2.562h-1.906l-.219 2.781 2.781 2.344-4.25 5.5-5.53 1.281-4.25 1.5 2.75 2.75.656 1.281-4.25 2.125-.438 6.156-.125.063 1.188 2.469 3.406 1.062 2.344-.844 2.75-1.906 3.625 2.969h2.968l2.125 2.969-.875 2.125.438 3-1.063 2.969.438 1.062 1.469-.438 3.406 1.063 4.469 1.281 1.906-1.281.844-1.469h.656l.187 15.906 1.063 1.063h2.781l2.531 1.5 1.906 1.5 1.938.188 1.25 1.062 3.531.406.25-.594-1.562-.78v-2.344h4.875l1.562-1.563-.969-1.75 2.532-1.969 1.781.781 2.531-2.156 4.469.781 1.563-1.75 3.718.188v-4.281l-1.562-.781-.781-2.532-4.094-.406-.594-.969.781-4.094 1.375-1.187-1.125-1.531-2.125-1.281-1.281 1.28.438-1.718v-1.688l-1.72-1.718.876-4.031 1.906-1.063-.219-2.75-4.031-4.031h-1.5l-1.063 1.469-2.53-3.375-1.5.187-1.282 2.781.875 1.688-.656.656-1.688-1.281-4.906-1.063-2.313-4.25v-1.719l-2.343-2.53-.25-1.094-7.813-9.532-.875-2.75-1.687-1.5-1.688-.219z" class="prefix__land prefix__departement38"/><path d="M446.125 266.188l-4.469.78-4.312 3.5-1.156-1.75-2.157.188-1.969 4.313.22 1.75 2.124 1.75-3.906 2.562-2.531 2.344h-4.313l-1.969 1.563-1.906.625-1.062 1.937-1.906-1.063-.438 5.5 1.063 1.938.062 2.094 1.625 1.281v5.531l3.844.625 1.469 2.781 3.406.407.625-1.25h1.719l2.968 3.187 1.063 1.063 3.406-.656.844-1.688.844-3.406 1.906-1.5 1.5-4.438 1.906-1.281 1.5.406.406 1.281-1.062 1.282 1.906 2.344h3.188l1.937 3.187-.438 1.063 1.907-1.282 1.5-1.687 1.312.156.094-3.406 6.656-2.75.781-1.938-.406-4.312-4.281-4.469-1.375.781v-4.687l-3.719-1.781-.187-1.563 2.156-2.344v-2.719l-3.531-3.718-.188-2.531h-6.656z" class="prefix__land prefix__departement74"/><path d="M339.531 278.031l-3.531.594-.563 2.156 1.375 2.719.375 11.125-4.687.219-.188 1.75 3.125 2.531-1.75 1.75-.593 4.313 2.344 3.125 2.125 5.062 5.093 3.344 1.75 6.437-3.719 3.5.594 2.344 5.469 1.781 4.313-3.531 2.125-.188 6.25 2.72-.375 3.718 3.125-.188 2.468 2.844 1.813-.5 3.375-.625.875-3.844 4.656-2.75.438-6.156.156-.094-2.281-.343-2.125.844-1.72-1.063 2.126-2.531-.625-1.906-6.594-1.063-5.531-5.094v-1.719l1.281-1.062v-1.469l-1.469-.875 1.25-1.906v-2.75l-2.531-2.344v-2.344l-1.719-1.687v-1.906l-.844-3.188 1.282-1.281.219-3.813h4.03l1.063-1.28-1.281-2.126v-1.906l-1.063-.844-.75 4h-2.156l-1.562 1.563-1.188-1.188-6.25-.969-2.344 1.375h-1.562l-.375-1.375-2.938-.593-.187-3.125-.594-.188z" class="prefix__land prefix__departement42"/><path d="M371.75 275.313l-2.125.187-1.781 1.75-1.156-1.563-1.75 1.563-2.375-1.563h-1.938l-.781.594-.406 2.25 1.062.844v1.906l1.281 2.125-1.062 1.281h-4.031l-.22 3.813-1.28 1.281.843 3.188v1.906l1.719 1.688v2.343l2.531 2.344V304l-1.25 1.906 1.469.875v1.469l-1.281 1.063v1.718l5.531 5.094 6.594 1.063.625 1.906-2.125 2.531 1.719 1.063 2.125-.844 2.28.344 4.094-2.032-.656-1.281-2.75-2.75 4.25-1.5 5.531-1.281 4.25-5.5-2.78-2.344.156-2.031-3.97-1.156-2.562.843-.406-3.406-2.344-2.125-1.5-.219-3.812-2.312.625-1.5V287l1.062-1.469.375-4.562-.656 1.562-1.375-.187-.75-3.906-1-3.125z" class="prefix__land prefix__departement69"/><path d="M417 293.813l-.406 5.718-1.281 1.063v6.375l-2.563.437-.406 3.625L410 312.72l-.031-.031.25 1.093 2.344 2.531v1.72l2.312 4.25 4.906 1.062 1.688 1.281.656-.656-.875-1.688 1.281-2.781 1.5-.188 2.531 3.375 1.063-1.468h1.5l4.031 4.031.219 2.75-1.906 1.063-.875 4.03 1.719 1.72v1.687l-.438 1.719 1.281-1.281 2.125 1.28 1.125 1.532 3.531-.375 1.157 1.156.594 2.75 3.5-.406.406-2.938 1.75-.78 3.75.187-.063-.125 5.844-2.344 2.156 1.375h2.156l.188-2.344 2.531-1.375.969-1.156 5.094-1.969.594-3.312-1-1.563 2.75-4.687-2.532-.969-.781-2.75-5.281-3.125s.315-5.987-.188-7.063a1.267 1.267 0 00-.062-.093.97.97 0 00-.031-.031h-.032v-.032h-.093c-.782.196-3.688.406-3.688.406l-2.938-3.343.094-3.219-1.312-.156-1.5 1.687-1.906 1.281.437-1.062-1.938-3.188h-3.187l-1.906-2.343 1.062-1.281-.406-1.282-1.5-.406-1.906 1.281-1.5 4.438-1.906 1.5-.844 3.406-.844 1.688-3.406.656-1.063-1.063-2.969-3.187h-1.718l-.625 1.25-3.406-.406-1.47-2.782-3.843-.625V295.5L417 293.812z" class="prefix__land prefix__departement73"/><path d="M375.25 328.5l-4.531 2.688-.875 3.843-3.375.625-1.813.5.063.094-1.156 4.688-2.75 1.156-1.157 1.969.781 2.53.563 1.376h-2.906l-.219 3.687-3.125.219-1.563 4.875H348.5l-5.063 3.719-2.812 4.469.469.593 1.375 7.188 3.312 3.594-.562 4.125 4.156 2.5v5.53l2.219-1.124 4.687 3.062 2.219.813.531-3.875 2.781-.531.813 3.03 2.781-.28.531-3.032 6.344 3.563 1.031-2.094 2.688-.406.219-4.125-.625-.875-.844-.188v-1.5l.625-1.5-1.063-1.687.625-3.813 2.563-3v-4.219l-1.063-4.906 1.907-.406.437-2.125 1.906-3.625 1.063-2.75-1.688-4.25-1.062-3.406-1.5-5.938v-7.969l-1.063-.343-1.187-2.469z" class="prefix__land prefix__departement07"/><path d="M384.938 329.281l-2.75 1.906-2.344.844-2.344-.719v7.97l1.5 5.937 1.063 3.406 1.687 4.25-1.063 2.75-1.906 3.625-.437 2.125-1.906.406 1.062 4.906v4.22l-2.563 3-.625 3.812 1.063 1.687-.625 1.5v1.5l.844.188.625.875-.219 4.125 2.594-.375 1.156 1.375-.563 3.906.782.969 2.906-2.938 2.563-.187.562-1.563-3.313-.406-.562-3.5 2.125-3.313 2.75-.218 2.719 2.562-2.719 3.688.781 1.375 3.906.406 2.532-2.156-1.375 2.937.406 2.344 4.094.375 5.469.406.78 2.531 2.938 2.157 2.531.187 1.75-1.562 1-2.938 1.563 1.375 1.156 1.375.781-7.25-1.937-.375-1.188-2.531-6.625-1.781-.812-3.313 2.375-1.562-1.969-1.375.406-1.75 3.125.187 2.72 1.375 2.156-2.531-2.157-1.75.188-2.344 1.187-3.719 4.094-.406 3.313-1.344.343-.78-3.531-.407-1.25-1.063-1.938-.187-1.906-1.5-2.531-1.5h-2.781l-1.063-1.063-.187-15.906h-.656l-.844 1.469-1.906 1.281-4.47-1.281-3.406-1.063-1.468.438-.438-1.063 1.063-2.968-.438-3 .875-2.125-2.125-2.969h-2.969l-3.625-2.969z" class="prefix__land prefix__departement26"/><path d="M149.313 270.625l-2.75.188-5.97 3.625 1.438 1.312-3.125 2.531-.375 1.969-2.937.375-1.563-1.75-3.906-.375-.406-1.969-2.344-1.562-3.313 1.187 2.157 3.125h2.719l2.75 1.75 2.156 1.75 4.094-.187.78 1.75 2.72.594 1 2.718 1.75.781-.188 2.157-2.344-.375-.781 1.156 1.75 2.531-.969 4.313-2.344-.188.188 2.719.594.969h-2.75l-.375-1.563 1.75-2.344-.594-1.343-.969-.781-.406-4.688-3.313-.406-2.718-3.313-.406 6.844 4.5 3.313.375 3.718.78 4.281.407 4.313 2.344-.219 4.094 3.344 2.75 1.563.187 1.937 2.156.406 6.25 6.25 1.469 6.75h5.781l.969-.969.188 2.938 5.093.594.781 6.25 2.75.187 4.47 4.5 2.343.375 2.75-1.375 1.938 1.375 1.562-3.312 1.563-2.719-4.157-2.813-1.281-1.718-1.719-1.906-4.031.656-1.281-.656-.188-1.063 2.125-.844v-.406l-1.5-.438-1.062-.843 2.562-2.125v-1.5L174 322.688l.844-.844.437-2.125-1.5-1.469-1.281-2.125-2.313-2.125-1.718-1.063 1.5-1.718-.844-.188-.219-4.469-1.719-.656 2.344-1.25h2.781l1.25-1.062h2.344l.438 1.062 2.125.188 1.469-.625.437-4.031 1.688-6.157.062-.031-1.531-1.469-.438-2.125-2.75-1.281-3.625-2.531-4.469.406-2.75-3.594-4.03-.219-3.188-2.343v-1.281l-2.125-2.313-.094-2.875-2.938-2.188-3.718 1.563-1.156-3.125z" class="prefix__land prefix__departement17"/><path d="M265.75 307.625l-.844 2.125-3.187.625-1.25 2.125h-1.5l-2.125-.625-1.5 2.531-2.313.219-1.5 2.75h-1.906l-1.5 1.5-3.813-.438-1.28 2.125-1.47-.187-2.562 3.188-2.344-.875-1.094 2.218.844 2.156 2.156 1.75-3.906 3.532v2.719l1.563.78-1.563 1.97 2.156 1.75-1.562 1.937 1.75 1.188 4.281-.188-.187 4.281 1.625 2.563.594-.094 4.156-1.938 4.969 2.22 3.843 5.5 2.219-.282 3.313-3.313 1.093 1.938 2.219-2.188 3.031.813.094.656 2.531-1.781-.781-1.938-1.188-1.187 1.563-1.938h1.563l1-3.125.78-1.562-.593-3.531 2.531-3.5 3.531-2.156.188-5.47 1.75.97 1.969 2.156h1.937l1.188-1.375-.969-2.344.969-3.5-.594-3.313-1.188-1.375v-2.75l1.782-2.906-.406-2.75-.438-.437-1.969 1.531h-3.844l-1.25 1.906h-2.343l-1.906-1.906-.875-1.281h-4.875l-1.063-1.469h-1.5z" class="prefix__land prefix__departement19"/><path d="M256.125 267.875L254.969 271l-3.531-.188-.782-.406-2.344.219-1.75-1.188-3.375 3.875.063 2.875-2.344 4.657.438 2.344 2.531.625 1.719 4.25 1.687 1.718-.625 8.063 3.594-1.063 1.5 1.906-2.344 1.907v1.937l1.906.188 3.407-.188 1.062-1.5h.844l-.406 2.563 2.75 1.25 2.562 1.719v1.062h-1.5l.438 2.531 1 .625.25-.406 3.187-.625.844-2.125h1.5l1.063 1.469h4.875l.875 1.281 1.906 1.906h2.344l1.25-1.906h3.843l1.969-1.531-4.063-4.063-.375-1.75 3.72-2.156 2.156-1.156.562-2.75 2.344-1.75-.781-3.719-1.563-1.938L287 283.5l-2.156-5.063-2.156-.78-1.563-2.75-1.375 1.75-1.344-1.75v-2.344l-2.344-3.313-6.437.781-3.719-.969-9.781-1.187z" class="prefix__land prefix__departement23"/><path d="M239.531 270.813l-1.75 1.75-4.906-.375-.563-.125-3.718.687-2.156 1.781v2.344l-4.282.188-2.531 2.937-1.563 1.156 1.344 1.563-.187 5.281-.969 1.75 1.563 1.75 2.718.219.594 2.719.188 1.75-3.5.78-1.75.594.375 4.875-2.344 1.563-1.969.594-.969 2.75-1.562.187-.656 2.969 4.562.156 1 1.938-.813 2.156 1.782 2.344 1.344-.375 1.375-1.969 6.25.594 1 3.906 4.28.594.97 1.344-2.938 1.375 1.375.968 4.125.594.313.781 1.093-2.219 2.344.875 2.563-3.187 1.468.188 1.281-2.125 3.813.437 1.5-1.5h1.906l1.5-2.75 2.313-.219 1.5-2.531 2.125.625h1.5l1-1.719-1-.625-.438-2.531h1.5v-1.063l-2.562-1.718-2.75-1.25.406-2.563h-.844l-1.062 1.5-3.406.188-1.907-.188v-1.937l2.344-1.906-1.5-1.907-3.594 1.063.625-8.063-1.687-1.719-1.719-4.25-2.531-.625-.438-2.343 2.344-4.656-.063-2.875-.53.625-3.126-3.125z" class="prefix__land prefix__departement87"/><path d="M188.75 225.688l-3.719 3.906-.937 1.625.312 4.812 1.688-.219.219 2.125.656 3.407 1.062 2.344-1.281 1.468.625 1.063-.844 1.5v.625l1.5 1.719v1.062l-.656 1.688L185.25 256l2.125.844.656 1.5-.875 2.312-.187 1.063-1.281 2.125v1.5l.843.219v4.468l1.5 1.063-.656 1.469.219 1.28 1.687 1.907.875-1.281v-1.063l1.688-.844 1.281.844v3.188l-1.281 1.5-1.063 2.531 1.469 2.344 3 .844-.656 1.937-2.781.469 2.562 3.125 3.406-.219 2.969-1.063 3 1.72 1.063-.844-.22-2.782 1.688-1.281 1.5 2.563 1.25 1.28 3.625-1.5 1.5-1.687h3.375l1.75.875.125-3.687-1.344-1.563 1.563-1.156 2.531-2.938 4.281-.187v-2.344l2.157-1.781 5.281-.969.375-2.937-2.125-1.156-1.188-4.094-3.125-.406-1.937-1.938-3.719-2.938.781-2.343v-3.719l-3.53-3.5-.376-2.75-3.344-3.5-1.156-4.688-1.375-.593-1.562-2.156-1.563.968.406 2.156-5.093 1.188H199.5l.188-2.344v-3.719L195 231.938v-2.343l-3.719-.781-.781-3.125h-1.75z" class="prefix__land prefix__departement86"/><path d="M206.281 284.875l-1.687 1.281.219 2.781-1.063.844-3-1.719-2.969 1.063-3.406.219-2.563-3.125-.812.156-3.406 1.688-2.563.656v1.469l-1.469 1.718.407 1.063-1.906 1.062-1.688 6.156-.438 4.032-1.468.625-2.125-.188-.438-1.062h-2.344l-1.25 1.062h-2.78l-2.345 1.25 1.72.656.218 4.47.844.187-1.5 1.719 1.719 1.062 2.312 2.125 1.281 2.125 1.5 1.469-.437 2.125-.844.844 1.281 1.28v1.5l-2.562 2.126 1.062.844 1.5.437v.406l-2.125.844.188 1.063 1.281.656 4.031-.656 1.719 1.906 1.281 1.719 4.156 2.812.594-1 3.906.406 1.938-1.781 3.531-3.5.188-6.844 9.187-6.25.188-4.687 2.75-.375 1.75-3.125 1.094.031.656-2.969 1.562-.187.969-2.75 1.969-.594 2.344-1.563-.375-4.875 1.75-.593 3.5-.781-.188-1.75-.594-2.72-2.719-.218-1.562-1.75.969-1.75.062-1.594-1.75-.875h-3.375l-1.5 1.688-3.625 1.5-1.25-1.281-1.5-2.563z" class="prefix__land prefix__departement16"/><path d="M181.719 229.406l-5.281.188-4.875.969-5.282.406v2.719l-2.719 1.78-6.062-1.374-4.094 1.75 1.938 2.75v2.344l4.687 3.906-1.156 2.531 3.125 3.5-1.375 1.781 1.938 2.906.593 5.47-1.156 1.562 1.375 2.344L162 267.5l.188 1.563 1.562-1.188 1.938 1.969-2.72 1.75-.968 1.156-2.156.594-2.531 1.187-.188-.156.094 2.875 2.125 2.313v1.28l3.187 2.344 4.031.22 2.75 3.593 4.47-.406 3.624 2.531 2.75 1.281.438 2.125 1.531 1.469 1.844-1.031-.406-1.063 1.468-1.719v-1.468l2.563-.656 3.406-1.688 3.594-.625.656-1.938-3-.843-1.469-2.344 1.063-2.531 1.281-1.5v-3.188l-1.281-.844-1.688.844v1.063l-.875 1.281-1.687-1.906-.219-1.281.656-1.47-1.5-1.062v-4.469l-.844-.218v-1.5l1.282-2.125.187-1.063.875-2.312-.656-1.5-2.125-.844 2.125-3.188.656-1.687v-1.063l-1.5-1.718v-.625l.844-1.5-.625-1.063 1.281-1.469-1.062-2.343-.656-3.406-.22-2.125-1.687.218-.312-4.812-.406.719-1.375-1.157-.594-1.375z" class="prefix__land prefix__departement79"/><path d="M69.781 123.219L68 124.594l-4.469.562-1 1.375-3.125-2.344-4.093 2.75 1.562 2.126-2.719 3.718-.125-.062-1.125 5.25 2.407.156-.157 2.094 1.782 1.125-1.626 1.625-1.124.812.156 1.906 2.437.813-2.281.656v2.406l1.469 1.938.312 5.656-.968.969.812 2.906 3.063.813.312 1.594 1.938.156 1.624-1.125.97.969 3.718 1.625 3.063-1.625.78-1.594 2.594-.188 2.907 2.594 2.75-.656 2.406 2.437h1.125l1.125 1.438h2.281l.781-1.125.97 2.094 2.437.968 3.062-1.937v-2.094l2.25-.813h1.438l1.781 3.25 3.875.313 1.938-2.438 2.093-4.5 2.75-.968 1.438-2.094 1.469 1.438 3.062-.625.969-8.875.969-3.563-.97-1.938-1.624-.625-1.094-5.906-1.25 1.406-3.719-.406-.375 2.156-2.344.188-.187-2.719-1.969-.594-1.375 1.563v-3.906l-2.344 1.75-3.5-.594-1.187 2.344-7.219 3.906v1.969h-1.562v-3.531l-4.094-1.938.375-3.531-3.688-2.719v-3.313l-2.75-.593.188-3.125-2.125-.188.188-2.156H71.53l-.594 1.938-1.156-2.72z" class="prefix__land prefix__departement22"/><path d="M138.531 229.563l-1.125 2.093h-3.219l1.282 1.313-.969 3.219-2.906.968-1.125-.812.5-3.219-.813-1.781h-1.781l-1.281 1.437.625 4.531 1.469 2.094-1.47 1.625-2.718-.5-4.031-.969-1.125-3.062-2.594-.313-3.375-1.468-.813-1.938-3.687-2.406-5.813 7.5-.187 4.688 6.031 5.843-.187 1.75h1.75l3.719 11.156 3.906 1.938 3.906 3.906h4.5l1.75 3.906h4.313L135 274l4.313 2.156.187-2.75 1.094 1.031 5.969-3.625 2.75-.187 1.156 3.125 3.719-1.563 3.125 2.344 2.53-1.187 2.157-.594.969-1.156 2.719-1.75-1.938-1.969-1.563 1.188L162 267.5l1.375-2.563-1.375-2.343 1.156-1.563-.594-5.469-1.937-2.906 1.375-1.781-3.125-3.5 1.156-2.531-4.687-3.906v-2.344l-1.938-2.75.375-.156-2.656-2.25h-5l-1.625-.97-2.25-.312-2.594-2.437-1.125-.156z" class="prefix__land prefix__departement85"/><path d="M119.563 77.5l-.782 1.969 4.125 3.312v4.313l-1.562 1.937.969.969.593.406-.406 3.719 1.375 3.125 4.5 5.063.969 4.5.969 1.374v7.032l2.343 4.687v5.469l-2.531 5.063 2.719 7.03 4.312.97.375 1.968-2.125.969h-3.687l.594 2.469 1.156 3.719 3.344 2.937 1.562.375 1.563-2.125 1.75-.219 2.125-2.531 1.968 1.563h2.344l1.563.78v.376l3.312.406 1.969-1.563 2.906 1.188.063.125 3.343-2.844 1.125-3.719-.312-1.625.469-1.906-1.938-1.937-5-3.25-3.688-.313-3.718-4.687 3.062-1.125 1.281-2.406-1.593-1.47 1.437-1.28 1.438 1.124 2.594-1.593 1.625-2.594.625-2.563-1.125-2.28.656-.813-1.469-2.406 1.625-2.094-1.281-1.625-1.625 2.094-2.25-1.282-3.719-3.719-.156-1.593 1.125-1.125-.344-2.156-1.844.468-.187-4.687L143 89.438l1.563-3.907h2.156l-1.938-5.281-8.406-.406-4.5 3.125-5.063-3.313-7.25-2.156z" class="prefix__land prefix__departement50"/><path d="M56 160.594l-3.25 1.562h-2.281l-2.407 1.938.157 1.437 1.437 3.719.813 2.906 5 .813 2.437 1.937.969-1.156 1.594 2.125-.813.969-.156 2.875h-1.438l-1.124 1.781h-2.282l-.937 3.844 2.187 3.5 3.125.781 1.157-1.75-.563 2.125 2.719 1.188 3.531 3.5 1.156 2.156-.375 2.531-.406 2.563 2.344 1.75 1.187-1.375-1.187-1.563v-3.5l2.344.563.78-2.344.594 1.375L74.844 199l1.187-1.969-1.187-2.719L77 197.25l2.719-.406-.563-1.375 2.531.594 1.938 2.343-.969 1.563-2.531-.781-2.938-1.375-1.562 1.968 2.344.781 1.75 2.72 10.562-.97 2.719.594-1.344 1.156.188 1.782.375.281.844-.156 1.75-1.75 1.156 1.344h3.125l3.719-1.938 5.468-2.156.188-5.469 1.156-.625-2.063-3.875 1.782-1.438-.313-.968-1.125-.656 1.75-.813 1.625-1.938-.156-1.937h-2.094l-.5-1.906 1.469-1.938-1.625-2.906-2.406-1.469h-2.75l-.969-.312v-1.281l1.438-1.313.812-3.219-.469-2.094-.656.813-3.875-.313-1.781-3.25H96.28l-2.25.813v2.094l-3.062 1.937-2.438-.969-.969-2.093-.78 1.125H84.5l-1.125-1.438H82.25l-2.406-2.437-2.75.656-2.906-2.594-2.594.188-.781 1.594-3.063 1.625-3.719-1.625-.969-.97-1.624 1.126-1.938-.156-.313-1.594-3.062-.813-.125-.437z" class="prefix__land prefix__departement56"/><path d="M40.656 129.063l-2.125 2.343-2.343-.969-4.313.407-.781 1.937-2.532.594-.406-2.156-4.468.594v1.375l-3.125.187-1.375-.969-1.563.781-.406 2.344-5.25.188-2.75 3.312 2.344 1.75-3.126 2.563.97 1.75-.782 4.281 3.125.406 1.188-1.187.593.781 7.406-.969 4.875-3.5-4.28 4.094.374 1.938 3.907-1.75-.782 2.75 4.313.187-.188 1.156-4.687-.187-3.719-.969-4.5-2.156-2.719 3.125 3.5 1.187-.187 5.25.968-.781 2.157-3.313 4.093 2.344 1.97.406.78 3.125-1.187 2.125-2.531-.187H20.75l-3.906.594-6.657.375L8.845 166l1.937 1.156 2.156-.187 1.75 1.562 2.532-.187 4.125 4.687.968 5.063-1.375 2.75 4.094.781 4.5-.219.969-1.75-1.75-2.344 1.75.782 1.781-.188 3.125 1.75 1.938-.375v-3.344l.781 3.344 2.531 4.094 5.469.375.219-1.156 1.343 1.937 3.344.594h2.532l.156.219.937-3.844h2.282l1.124-1.781H59.5l.156-2.875.813-.969-1.594-2.125-.969 1.156-2.437-1.937-5-.813-.813-2.906-1.437-3.719-.157-1.437 2.407-1.938h2.281l3.25-1.562-.688-2.469.97-.969-.313-5.656-1.469-1.938v-2.406l2.281-.656-2.437-.813-.157-1.906 1.126-.812 1.624-1.625-1.78-1.125.156-2.094-2.407-.156 1.125-5.25-3.218-1.875-5.47.187v3.906h-1.562l-.375-1.75-2.343.375-.407-4.5z" class="prefix__land prefix__departement29"/><path d="M116.25 135.906l-1.875 2.125 1.094 5.906 1.625.625.969 1.938-.97 3.563-.968 8.875-3.063.625-1.468-1.438-1.438 2.094-2.75.969-2.094 4.5-1.28 1.625.468 2.093-.813 3.219-1.437 1.313v1.28l.969.313h2.75l2.406 1.469 1.625 2.906-1.469 1.938.5 1.906h2.094l.156 1.938-1.625 1.937-1.75.813 1.125.656.313.969-1.781 1.437 2.062 3.875 3.938-2.094 12.093-.594.781-2.156 1.97-1.937 4.28-.594.188-2.156 2.938.406 1.75 2.344 3.937.969.75-1.563 1-3.531 2.531-6.25 1.375-.781 3.313.406v-5.281l-1.375-1.375v-5.657l-.594-1.937v-3.125l1.969-1.969v-3.906l-.969-.781.188-5.47-1.563-.78h-2.344L143.812 146l-2.125 2.531-1.75.219-1.562 2.125-1.563-.375-3.343-2.938-1.156-3.718-.594-2.469h-9.594l-3.531-2.156 2.344-3.125-4.688-.188z" class="prefix__land prefix__departement35"/><path d="M132.875 185.844l-.188 2.156-4.28.594-1.97 1.937-.78 2.156-12.094.594-5.094 2.719-.188 5.469-5.469 2.156-3.718 1.938h-3.125l-1.156-1.344-1.75 1.75-.844.156 1 .688-3.719 3.312.781.781.781 1.563-1.968 2.75 2.156 1.156 3.719.781.375-1.562 2.156 2.75h3.531l2.531-2.75h3.313l-3.5 1.75.188 1.969.78 1.75-2.156 2.156h-2.343l.406 2.937 4.281-.781 5.094 4.688-.25.312 3.688 2.406.812 1.938 3.375 1.469 2.594.312 1.125 3.063 4.031.968 2.719.5 1.469-1.625-1.47-2.094-.624-4.53 1.281-1.438h1.781l.813 1.781-.5 3.219 1.125.812 2.906-.969.969-3.218-1.281-1.313h3.218l1.125-2.094 1.125.157 2.594 2.437 1.875.25.063-2.031-1.625-2.094h-1.438l-.5.156-.969-.468.813-.813v-1.469l1.625-.468.969-2.25-.813-.813-.156-2.75H140l-2.094-2.594v-1.906l2.25-1.156 4.031-.781 6.282.156 1.937-1.313-.656-4.03-2.906-2.72-3.531.47-.97-.813-.155-2.875 2.562-2.281-1.938-2.407-1.28-3.406-2.095-1.281v-2.25l-.218-.719-3.656-.906-1.75-2.344-2.938-.406z" class="prefix__land prefix__departement44"/><path d="M141.938 188.688l-.438.875-.281-.063.219.719v2.25l2.093 1.281 1.281 3.406 1.938 2.406-2.563 2.282.157 2.875.969.812 3.53-.469 2.907 2.72.656 4.03-1.937 1.313-6.281-.156-4.032.781-2.25 1.156v1.906l2.094 2.594h2.094l.156 2.75.813.813-.97 2.25-1.624.469v1.468l-.813.813.969.469.5-.157h1.438l1.625 2.094-.063 2.031.375.063 1.625.969h5l2.656 2.25 3.719-1.594 6.063 1.375 2.718-1.781v-2.72l5.281-.405 4.875-.97 5.282-.187.594 1.375 1.375 1.156 1.343-2.343 3.719-3.906h1.5l2.219-8 3.125-3.72-.219-4.28 1.969-2.563v-1.156l-.969-1.188.625-1.281-2.656-1.031-8.219-5-7.594-2.25-2.906-.156v-1.938l-1.781-1.469h-1.906l-3.563-1.125-2.25 2.25-5.156.188-2.281-1.313-5.782-1.75-1.312 1.594-3.219-2.094h-2.906l-3.531-.719z" class="prefix__land prefix__departement49"/><path d="M202.438 151.875l-5.282.188-5.281 4.875-2.75-.157-3.656 1.188-1.125 1.937-.5 4.188.344 2.562-2.907 2.438-.812 1.594.656 1.468-.813 1.938.313.812-3.219.313-.469 1.437 1.438 3.563-.156.969-1.281 1.125-2.75.156-.344.969.656.968v5.813l-.625 1.469 1.75 1.437v1.938l2.906.156 7.594 2.25 8.219 5L197 203.5l1.313-2.625 3.906 2.75h2.156l-1.188-3.906 2.375 1.562 1.344-1.969 5.656-1.562-.968-2.344 1.375-1.75 2.937-1.156 2.719-3.531v-3.719h1.969l.781-2.719.188-4.094-1.938-1.78 1.563-2.72L223.5 171l-2.719-1.938-2.531-.406-2.75-4.094h-.781l-.188 1.938-.187-1.344h-4.094l-1.969-2.937-3.312-1.188L204 154l-1.563-2.125z" class="prefix__land prefix__departement72"/><path d="M182.5 146.406l-1.938.188-.812 1.937-2.906 1.188-5.281-.781-5.282 3.125-1.937-1.375-2.938 1.968-2.156-1.562-1.375-2.344-2.906-1.188-1.969 1.563-3.313-.406-.187 5.094.969.78v3.907l-1.969 1.969v3.125l.594 1.937v5.656l1.375 1.375v5.282l-3.313-.406-1.375.78-2.531 6.25-1 3.532-.313.688 3.532.718h2.906l3.219 2.094 1.312-1.594 5.781 1.75 2.282 1.313 5.156-.188 2.25-2.25 3.563 1.125h1.906l.031.031.625-1.468v-5.813l-.656-.969.344-.968 2.75-.156 1.28-1.125.157-.97-1.438-3.562.47-1.437 3.218-.313-.313-.812.813-1.938-.656-1.469.812-1.593 2.906-2.438-.343-2.562.5-4.188 1.125-1.937 3.656-1.188-.563-.031-1-3.531-2.53-.969-.782-4.281-1.75-1.563z" class="prefix__land prefix__departement53"/><path d="M202.656 97.781l-4.562.813-7.438 4.312-8.375 3.313-6.656-3.719-16-2.344-3.719-1.937-5.781 1.469.344 2.156-1.125 1.125.156 1.594 3.719 3.718 2.25 1.281 1.625-2.093 1.281 1.625-1.625 2.094 1.469 2.406-.656.812 1.125 2.281-.625 2.563-1.625 2.594-2.594 1.594-1.438-1.126-1.437 1.282 1.594 1.469-1.282 2.406-3.062 1.125 3.719 4.687 3.687.313 2.844 1.844 3.937-1.188 2.906-3.375 4.032 1.125 3.531-2.438 2.125-.78 2.25 2.25 3.719-.657 3.219 1.781 4.03-1.281 3.688-2.75 2.438-2.75 1.625-.313.469 2.094 1.28-.312.157-1.469 3.719-.625 1.281.781 3.969-.875.656-1.906-.188-1.75-1.968-.781-.188-1.375 1.75-1.156.219-1.97-1.188-4.687-2.343-3.312 1.969-1.156v-.782l-1.97-.594-.937-7.406z" class="prefix__land prefix__departement14"/><path d="M206.844 124.656l-3.969.875-1.281-.781-3.719.625-.156 1.469-1.281.312-.47-2.094-1.624.313-2.438 2.75-3.687 2.75-4.031 1.281-3.22-1.781-3.718.656-2.25-2.25-2.125.781-3.531 2.438-4.031-1.125-2.907 3.375-3.937 1.188 2.156 1.406 1.938 1.937-.47 1.906.313 1.625-1.125 3.72-3.344 2.843 1.313 2.219 2.156 1.562 2.938-1.969 1.937 1.375 5.281-3.125 5.282.782 2.906-1.188.813-1.937 1.937-.188 1.75 1.563.781 4.281 2.531.969 1 3.531 3.313.188 5.281-4.875 5.281-.188L204 154l.969 7.031 3.312 1.188 1.969 2.937h4.094l.187 1.344.188-1.938h.781l2.75 4.094 2.125.344v-4.625l-1.344-1.781-.406-1.563 2.938-1.75 2.937-.594 1.938-2.343-.375-7.219-4.125-3.5-.188-3.344-3.5-2.344 1.375-1.937-.813-2.938-2.718-.968-1.969-1.969-1.156-2.719-5.469-.187-1.563-1.969.907-2.594z" class="prefix__land prefix__departement61"/><path d="M247.156 126.094l-1.187.969v3.124l-3.906 1.938v2.938l-1.157 1.375H236l-2.313-.97-7.062 3.688h-2.719l-2.812 2.688.656.437.188 3.344 4.125 3.5.375 7.219-1.938 2.344-2.938.593-2.937 1.75.406 1.563 1.344 1.781V169l.406.063L223.5 171l-1 1.25 1.938.969 3.093-.563h1.813l-.125.844-1.688.969 1.125.844h2.813l.969 2.25 1.687.968 1.25 2.813 4.344 1.125 2.687-.281 2.375-2.25 2.125.593.531-1.156-.125-1.25 1.125-.844 1.813 1.125 1.125-.844v-1.53l1.531-1 1.406.562 1.25 1.406 2.25-1.25h2.375l1.688-1.844 1-3.625 1.531-.281-.406-3.656 1.813-1.531-.563-1.125.219-.375-.531.062-.407-5.25-.406-.594-.375-2.531-4.094-.781-1.781-2.156-.563-4.313-2.343-.375-.406-2.156-2.72-1.938-1.374-3.344 1.375-2.343-1.375-1.563v-1.937l.781-2.156-1.563-1.563-.593-2.344-1.938-1.937z" class="prefix__land prefix__departement28"/><path d="M318.438 157.344l-1.75 1.344-7.625-.375-3.5 1.75-1.375 2.937 1.562 1.75-2.344 2.75-1.781 2.125 3.531 3.344.969 3.125 2.563 2.719v3.53l-5.094 4.282 1.75 1.969-.375 2.906-2.75 1.969h-3.906l.593 2.156 2.531 3.5.594 3.125.594 2.156-1.156.344 2.469.563h1.843l.969-1.532H308l1.406 1.25-.281 1.563 1.281.844h1.813l2.531 1.687 1.125-.563 1.125.97 1.125-.282 1.938-1.25 1.843.563 1.25-.282v-3.5l.688.125.437 1.813 2.25 1.406v2.125l3.219.125 4.219 3.938 2.656.125-.156-1.25 1.125-1.688 1 1.25-.844 1.406.406 1.281 1.531-1h1.844l-.156 2.813 1.688 1.125 1.28-.563 3.126-2.125-.188-.406-1.844-1.125-.125-1.969 1.97-.968.843-1.125-.563-.969v-2.25l1.532-2.25 2.25-4.781.406-2.094 1.406-.563.156-.406-.718-.562v-1.688l2.25-1.687.562-2.813-.969-1.656h-1.562l-.406-.438v-2.375l1.969-1.406-.157-1.406-.281-1.406-1 2.156-1.375-.188-1.156-2.156-3.906 1.969-7.813-.406-.969-2.156-2.156-2.907-.375-3.531-3.125-3.719-1.969 1.375-3.531-2.719.594-5.28-5.063-5.282h-2.344l-1.375-1.156z" class="prefix__land prefix__departement89"/><path d="M423.5 175.5l-3.688.594-.593 1.937-1.969 1.375-1.344-1.562-.969.594.75 1.156-1.937 1.187.594 1.563-2.156.781v2.531h-2.75l-.188 1.563-2.719.594.188 2.343 1.75.188-.969 1.156-.594 3.906h-1.75l-2.937 1.188-3.125-1.188-2.719 1.188v1.969l2.125.375 1.563 3.125.218 1.562-2.531 2.938-1.188.375-.78.968 2.156 1 .375 3.125 1.75.188.218 3.906.781.781.094.625 1.5.406 1.688 1.407h2.531l.969-.969 1.719.063 1.78.062 3.938-3.219h1.125l1.25-.969 4.063.125 3.094-2.53 2.25-.407.843-2.094 1.813-.562 1.812-3.094 2.531-1.969 2.657-.406 1.969 1.406 3.656-.437v-1.969l1.469-.844 1.156-1.594h2.25l1.25-1.312.469-3.125v-1.938l-.844-2.968v-2.5l1.531-1.125 1.813-.938-.188-.375-6.25-3.312-1.75-1.969-1.75-1.156-1.563.781-.218 1.156-1.563.969h-.969l-2.937-3.313h-4.094l-1.75 1.375-1.562.188-2.531-1.938.187-2.156-1-.781z" class="prefix__land prefix__departement70"/><path d="M241.938 61.5l-1.282 1.563-8.375 6.437-14.844 3.719-9.78 3.5-8 4.312-4.688 7.031-.969 5.47 3.906 2.937 5.656 1.156-.906.156.031.156 4.375-.562 2.25-2.406 1.688-.406 1.938 3.374 2.687-.28 1.125 1.937 4.75-.281 4.781 3.374-3.094.97 2.25 1.687h1.407l1.25 2.687h2.25l.687-1.687-1.687-1.125 4.781-1.406 5.031-.563 1.281-3.656 2.375-2.094 4.5-.125 5.188 2.656 3.094.344.531-1.625 1.375-2.563.781-1.343h-1.969V91.5l-1.156-1.938.781-3.906.782-1.969h-1.563l.781-1.937 1.938-2.344-1.938-3.531-.593-3.5-8.594-8.406-.969-1.938-2.156.188-1.688-.719z" class="prefix__land prefix__departement76"/><path d="M211 94.563l-1.688.406-2.25 2.406-4.375.563.907 7.25 1.969.593v.781l-1.97 1.157 2.345 3.312 1.187 4.688-.219 1.969-1.75 1.156.188 1.375 1.969.781.187 1.75-1.563 4.5 1.563 1.969 5.469.187 1.156 2.719 1.969 1.969 2.719.969.812 2.937-1.375 1.938 2.844 1.906 2.812-2.688h2.719l7.063-3.687 2.312.969h4.906l1.156-1.375v-2.938l3.907-1.938v-3.125l1.062-.874-.094-.876 1-1-1.75-.374v-1.563l-1-1.563.782-.968 5.469-1.563 1.375-2.344 1.187-4.312 1.438-1.781.312-2.313 1.75.969 1.375-.375-1-1.563-.563-4.5-1.75-1.562.032-.125-3.094-.344-5.188-2.656-4.5.125-2.375 2.094-1.28 3.656-5.032.563-4.781 1.406 1.687 1.125-.687 1.687h-2.25l-1.25-2.687h-1.406l-2.25-1.688 3.093-.969-4.781-3.374-4.75.28-1.125-1.937-2.688.281L211 94.564z" class="prefix__land prefix__departement27"/><path d="M212.188 196.875l.375.875-5.657 1.563-1.344 1.968-2.375-1.562 1.188 3.906h-2.156l-3.906-2.75-1.938 3.906.969 1.188v1.156l-1.969 2.563.219 4.28-3.125 3.72-2.219 8h.25l.781 3.125 3.719.78v2.345l4.688 1.375v3.718l-.188 2.344h5.844l5.094-1.188-.407-2.156 1.563-.969 1.562 2.157 1.375.594 1.156 4.687 3.344 3.5.375 2.75 3.031 3 1.72-.156 2.124-1.969 1.531-7.969.97-2.812.718-3.5 3.094-1.125 2.094.406 1.406 1.281 1.531-2.531 1.406-1.281v-1.531l1.813-.125.437-1.844-1.562-2.094.25-.875-1.094-.938-2.938-4.343h-3.78l-1.126-1.688v-7.031l-1.531-4.063-.281-5.03-1.969-.157-2.25-1.688h-.563l-1.968 1.407-1.25-.844-.281-1.938 1.406-.718.125-.688-.813-.719-9.469-.312z" class="prefix__land prefix__departement37"/><path d="M273.719 160.469l-2.531 2.344-5.72.5-.218.375.563 1.125-1.813 1.53.406 3.657-1.531.281-1 3.625-1.688 1.844h-2.375l-2.25 1.25-1.25-1.406-1.406-.563-1.531 1v1.531l-1.125.844-1.813-1.125-1.125.844.125 1.25-.53 1.156.405.125h1.657l-.125 1.125-1.125 1.938v1h1.125l.969 1.125.28 1.125-2.218 2.219 1.094 2.687v1.25l1.844 1.25 2.53.281 1.657 1.406.438 2.407 1.812 2.094 1.969-.563.844-1.813 3.093.407.688.719h1.969l.968-1.125 7.156.28 1.688 2.5 1.969.845 1.687 1.562 2.094-.281.563-.719h1.25l1.562 1.969 3.219.156.844 1.094 2.25 3.094.968.843 1.25-.125.156-2.812.563-.281.844.125 1.406 1.843.969.406 2-.812-.313-.344-.187-1.969 3.906-1.156-.594-2.156-.594-3.125-2.53-3.5-.594-2.156h3.906l2.75-1.969.375-2.906-1.75-1.969 5.094-4.281v-3.531l-2.563-2.72-.969-3.124-3.531-3.344-4.875 2.75-.375-1.563-2.156-.187-.594 1.563-1.938.375-5.28-.188-2.157 1.375-1.75-1.563 3.125-2.156-.188-3.312-2.343-1.188-1.969-2.937-5.25-.375-2.156-1.75z" class="prefix__land prefix__departement45"/><path d="M254.719 221.438l-1.25.437-2.531-.156-2.938 1-.688 1.531-.28-.563-3.376.157-1.687 1.406-1.969.281-.281.969 1.562 2.094-.437 1.844-1.813.125v1.53l-1.406 1.282-1.531 2.531-1.406-1.281-2.094-.406-3.094 1.125-.719 3.5-.969 2.812-1.53 7.969-2.126 1.969-1.719.156.5.5v3.719l-.78 2.344 3.718 2.937 1.938 1.938 3.125.406 1.187 4.094 2.125 1.156-.375 2.937-1.563.281.563.125 4.906.375 1.75-1.75 3.125 3.125 3.906-4.5 1.75 1.188 2.344-.219.781.406 3.532.188 1.156-3.125 9.781 1.188 3.719.968 1.688-.187.093-1.563 1.969-1.969-.406-1.687-1.125-2.219.406-.844.156-2.53.688-.844.156-.563-1.688-1.531-.562-1.969-2.656-1.406v-1.688l1.937-1.125v-1.125l-1.812-1.531-.563-.969 1.406-.719-.125-1.25 2.22-1.843-.126-.813h-1.812l-1.125-1.281v-.688l.969-1.687v-1.25l-2.25-2.969.437-2.656-1.281-.969-2.656.125-2.094.844-2.813-.406-1.406-1.125-.281-.844 2.25-1.844.156-2.219-2.969-1.687-1.687-1.563z" class="prefix__land prefix__departement36"/><path d="M222.5 172.25l-1.313 1.688-1.562 2.718 1.938 1.781-.188 4.094-.781 2.719h-1.969v3.719l-2.719 3.531-2.937 1.156-1.375 1.75.594 1.469 9.468.313.813.718-.125.688-1.406.719.28 1.937 1.25.844 1.97-1.406H225l2.25 1.687 1.969.156.281 5.031 1.531 4.063v7.031l1.125 1.688h3.781l2.938 4.344 1.094.937.031-.094 1.969-.281 1.687-1.406 3.375-.156.281.562.688-1.531 2.938-1 2.53.156 1.25-.438 1.688 1.563 2.969 1.688 2.5-.157-.125-2.531 1.125-1.25 1.125-.125.969 1.094 3.937-.406 2.5-1.407-.281-.969-.688-.843.125-1.844 1.844-3.344 2.375-1v-2.094l.563-1.25-1.531-.562-1-2.125-2.532-.688-.125-.843 2.531-2.094 2.844-1.406-1.594-2.375-7.156-.281-.969 1.125h-1.968l-.688-.72-3.094-.405-.843 1.812-1.969.563-1.813-2.094-.437-2.406-1.656-1.407-2.531-.281-1.844-1.25v-1.25l-1.094-2.688 2.219-2.218-.281-1.125-.97-1.125h-1.124v-1l1.125-1.938.125-1.125h-1.656l-2.532-.719-2.375 2.25-2.687.282-4.344-1.125-1.25-2.813-1.688-.969-.968-2.25h-2.813l-1.125-.843 1.688-.969.125-.844h-1.813l-3.094.563-1.937-.969z" class="prefix__land prefix__departement41"/><path d="M275.531 200.844l-2.844 1.406-2.53 2.094.124.844 2.531.687 1 2.125 1.532.563-.563 1.25v2.093l-2.375 1-1.844 3.344-.125 1.844.688.844.281.968-2.5 1.406-3.937.407-.969-1.094-1.125.125-1.125 1.25.125 2.531-2.5.156-.156 2.22-2.25 1.843.281.844 1.406 1.125 2.813.406 2.094-.844 2.656-.125 1.281.969-.438 2.656 2.25 2.969V238l-.968 1.688v.687l1.125 1.281h1.812l.125.813-2.219 1.844.125 1.25-1.406.718.563.969 1.812 1.531v1.125l-1.937 1.125v1.688l2.656 1.406.563 1.969 1.687 1.531-.156.563-.688.843-.156 2.531-.406.844 1.125 2.219.406 1.688-1.969 1.968-.094 1.563 4.594-.563.938-2 2.531-2.906 4.875-1 2.563.781 2.718-2.125-.187-1.562-.969-.781v-3.125l5.25-5.282 1.969 2.156 1.75-1.78 1.562-.188 2.719-3.5 4.5.375.063 1.062 1.5-4.781-.97-1.75.188-2.531.594-5.094-2.156-2.125.406-4.688-1.969-4.125-.187-2.718-3.531-2.75-.563-2.344 1.75-2.531v-3.719l-2.031-2.375-2 .813-.969-.407-1.406-1.844-.844-.125-.563.282-.156 2.812-1.25.125-.969-.844-2.25-3.093-.843-1.094-3.219-.156-1.563-1.969h-1.25l-.562.719-2.094.281-1.687-1.563-1.969-.843-.094-.125z" class="prefix__land prefix__departement18"/><path d="M363.375 177.25l-.406 2.531-2.531 1.375-6.438.188.281 1.406.156 1.406-1.968 1.406v2.375l.406.438h1.563l.968 1.656-.562 2.813-2.25 1.687v1.688l.719.562-.157.406-1.406.563-.406 2.094-2.25 4.781-1.531 2.25v2.25l.562.969-.844 1.125-1.969.969.125 1.968 1.844 1.125.688 1.531-.281 2.125-.407 1.532.969 1.687 2.813.563 1.25 1.969v.843l-.844.281v2.032l.156.062 3.781 3.906 3.938-.125 3.5 2.657 2.531 1.844.125 2.375 2.656.562 2.25 1.813 5.906-2.094 4.063-1.281 1.813-.282.562-.812 1.969.125 1.531.969 2.25-.563 2.25-1.531 1.688.187.03-.187 1.344-.781-.187-1-.375-1.157.969-1.562 3.312-1.563v-1.562l1.188-1.563 1.156-1.562-.375-1.375.563-2.156.406-3.125h.781l-.188-1.157-.78-.781-.22-3.906-1.75-.188-.375-3.125-2.156-1 .781-.969 1.188-.375 2.531-2.937-.219-1.563-1.562-3.125-2.313-.406-.812 1.969-4.281.969-.406-.969-3.125-3.906-1.75.969-2.344-.188-.781-1.563-3.125.188-.188-3.313-1.75-1.187 2.531-2.719-4.5-6.062-3.5-3.719-3.125-1.75h-5.656z" class="prefix__land prefix__departement21"/><path d="M306.75 203.781l-.969 1.531h-1.844l-2.468-.562-2.75.813.187 1.968 2.344 2.719v3.719l-1.75 2.531.563 2.344 3.53 2.75.188 2.719 1.969 4.125-.406 4.687 2.156 2.125-.594 5.094-.187 2.531.969 1.75-1.5 4.781.125 1.469 3.343 1.563L312 255l2.125-1.188 1.969-1.156.406 1.75h2.906l.781-1.562 1.75.781.594 2.531 1.563-.375 3.719-5.094 1.937 1.375.313.594 3.062-1.906 1.25.156.969 2.375 1.844-.281 1.406-1.406h1.812l1.406-1.813 1.407-.281.281-1 3.063.156.156-.719-1.406-1.25v-1.25l1.968-1.125v-.843l-1.844-1.125-.28-2.094.156-1.969-1.25-.844 1.093-1.53 1-.563.688-1.688-.969-.562-1.125-1.688 1.406-1.969 2.375-1.406h2.938v-2.219l.844-.28v-.845l-1.25-1.968-2.813-.563-.969-1.687.406-1.531.282-2.125-.5-1.125-3.125 2.125-1.281.562-1.688-1.125.156-2.813h-1.844l-1.53 1-.407-1.28.844-1.407-1-1.25-1.125 1.688.156 1.25-2.656-.125-4.219-3.938-3.219-.125v-2.125l-2.25-1.406-.437-1.813-.688-.125v3.5l-1.25.281-1.844-.562-1.937 1.25-1.125.281-1.125-.969-1.125.563-2.531-1.688h-1.813l-1.281-.843.281-1.563-1.406-1.25h-1.25z" class="prefix__land prefix__departement58"/><path d="M351.469 227.844v.187h-2.938l-2.375 1.406-1.406 1.97 1.125 1.687.969.562-.688 1.688-1 .562-1.094 1.531 1.25.844-.156 1.969.281 2.094 1.844 1.125v.844l-1.969 1.125v1.25l1.407 1.25-.156.718-3.063-.156-.281 1-1.406.281-1.407 1.813h-1.812L337.188 253l-1.844.281-.969-2.375-1.25-.156-3.063 1.906 3.625 6.813v2.937l.97 1.188h3.312l1.156 1.562h3.125l1.375 1.938-.188 7.625-4.093 3.125-.094.219.281-.032.594.188.188 3.125 2.937.594.375 1.375h1.563l2.343-1.375 6.25.968 1.188 1.188 1.562-1.563h2.156l1.157-6.25.781-.594h1.938l2.375 1.563 1.75-1.563 1.156 1.563 1.781-1.75 2.125-.188 1 3.125.75 3.907 1.375.187 1.188-2.75 3.687-14.437 1.375-2.531 2.156-.22 2.156 1.782 1.563-.406 1.938-1.375 1.968.406 1.156 2.531 1.125.438 5.125-.625 1.97-1.563-.782-1.187-2.344-.781-.219-2.72 1.97-1.374.78-3.313-1.75-3.125-1.187-1.562.594-.594v-1.938l-1.563-1-.406-1.562 4.5-.563.406-1.562h-1.375l-1.156-1.375h-2.156l-1.781-2.938-1.563-.187.188-2.344-1.688-.187L388.5 237l-2.25.563-1.531-.97-1.969-.124-.563.812-1.812.281-4.063 1.282-5.906 2.094-2.25-1.813-2.656-.563-.125-2.375-2.531-1.843-3.5-2.656-3.938.125-3.781-3.907-.156-.062z" class="prefix__land prefix__departement71"/><path d="M401.156 217.531l.094.531h-.781l-.406 3.125-.563 2.157.375 1.375-1.156 1.562-1.188 1.563v1.562l-3.312 1.563-.969 1.562.375 1.156.188 1-1.344.782-.219 2.531 1.563.188 1.78 2.937h2.157l1.156 1.375h1.375l-.406 1.563-4.5.562.406 1.563 1.563 1v1.937l-.594.594 1.188 1.562 1.75 3.125-.782 3.313-1.969 1.375.22 2.719 2.343.78.781 1.188-1.969 1.563-5.125.625 2.407.937 3.906 5.469 2.531 1.156v2.75l2.938-.406 3.719-4.094 3.125 1.563v2.344h5.656l8.125-8.938-.344-.188.375-4.093 2.938-3.5-1.97-.781.188-1.188-2.375-.219-.156-1.406 1.531-1.531-.406-1.531-.844-1.97 3.5-1.124 1.281-1.813.282-2.25-2.813-2.687-1.969-.531-4.343-1.407v-3.937l-.281-2.938-3.5.281-5.47-1.843.844-1.938 1.25-2.969.438-1.937-1.406-1.844-2.531-1.687-.282-2.094.031-1.188-1.718-.062-.969.969h-2.531l-1.688-1.406-1.5-.407z" class="prefix__land prefix__departement39"/><path d="M337.375 99.313l-2.344 1 .406 1.937h-4.125l-3.687 2.75v5.25l2.719 1.781.781 1.75-4.5.375-.563 1.781 1.75 1.157-.78 1.187-1.75.781.374 1.344h2.531l1 1.375-1.75 1.188-1.562 4.094-2.938 1.374-1 2.125-.968 1.188.219 1.156-1.563 1-.406 2.719 1.562.969.781 2.937-.968 1.75.594 1.375 2.906-.187v.969l.844-.188 3.375 3.563 4.75-.782 5.562-3.781h3.344l3.375-2.375 3.969-2.188 2.968.22.406 3.968 3.563 5.344h3.969l5.562-1.188 3.969 1.375 4.156-2.969.594-4.937 4.594-.781-.094-3.094-3.719-2.938-.406-1.562 1.375-2.344-1.188-.969 1.188-2.937 2.156-.969 1.563-4.875-3.125.188 1.75-1.938-1.375-4.312-1.344-2.938 1.75-1.562-1-.188-.25-1.344c-.04.007-.281.032-.281.032l-1.781-1.594-2 2h-.594l-.781-1-4.75-.188-.813 1.188H364l-1.188-2.594h-2.593l-.594.594-2.563-.188-3.187-2.374-2.188-.594-.78-1.188-4.157-2.594-4.75-.124.063 1.78-1.375.376-3.313-2.156z" class="prefix__land prefix__departement51"/><path d="M257.219 80.219l-1.281 1.531-.782 1.938h1.563l-.781 1.968-.782 3.906 1.156 1.938v3.344h1.97l-.782 1.344-1.375 2.562-.563 1.75 1.75 1.563.563 4.5 1 1.562-1.375.375-1.75-.969-.313 2.313.125-.156.75 1.75 1.188 1.937 5.281.406 3.719-.406 2.531-1.938 3.125 1.938 1.563 1.188 2.344-.594 2.125-.969 4.125 2.156 4.28 2.531 1.376 1.376 2.344-1.563 1.937 1.156 1.188.969 1.75-.188 1.187-1.562 2.719 1.563 3.344-1.376 1.937.594 1.938-1.562 1.187-.594.375.281.406-2.656-1.406-1.594-2.375-1.594-1 1.594-.594.188-.187-2.969 1.781-.406-.406-2.75-2.375-.406 1.187-2 3.375-.782 1.188-4.75 1.781-.812-2.375-1.781.813-1.782.375-5.937-.813-4.594-4.125.406-2.781-.375-5.156 1.375-4.375 4.156-3.563-1.187-3.563-.375-2.78-2.781-4.97-1.406-6.718.593-1.781-1.375h-3.594l-2.563 1-1.187-.812v-2.156l-.406-.594h-2.47z" class="prefix__land prefix__departement60"/><path d="M269.25 8.656l-10.813 2.063-8.593 6.625v26.375l-.063.781 3.031.719.97 2.156 2.343-.594 1.375-1.75 1.75.594 3.719 2.906 1.375-.562.969 2.343 3.5 1.563v1.938l2.562.968 2.531-.968 4.875-.594 1.188 1 2.344-1 1.156 1.968-2.906 1.938v2.75l.968.969.781-.188.563-1.562 1.781-1.188 1.75 1.375 4.094 1.375h1.75v-1.968l2.563 1.78.187 1.563-1.188 1.75 2.157-1.187 1.781-.782.75 1.376v1.374L301.438 63h4.687l.188.188 1.156-2.22-.594-1-1.781-.374h-1.969l-1.188-.407 1.97-1.187 1.78.188L307.47 58l.219-3.188 1.187-.78.188-1.782-2.188-1.406-2.563-.188-.593-.406 1.594-1.188.375-1.187-1.375-.969-2-2.406.218-1.188 2.563-1.187.406-1.375-1.781-.813-1-2.562-3.563-.406-3.562-.969-.406-3.969 2.562-1.593-.969-2h-2l-1.375 2.187-6.156-.375-4.969-1.219-2.75-2.968v-2.375l2.156-1-1.78-1.375-4.344-.188-2.594-6.563-3.719-5.906z" class="prefix__land prefix__departement62"/><path d="M285.781 4.063L279.531 7l-9.75 1.563-.531.093 3.719 5.906 2.594 6.563 4.343.188 1.781 1.375-2.156 1v2.375l2.75 2.968 4.969 1.219 6.156.375 1.375-2.188h2l.969 2-2.563 1.594.407 3.969 3.562.969 3.563.406 1 2.563 1.781.812-.406 1.375-2.563 1.188-.219 1.187 2 2.406 1.375.969-.375 1.188-1.593 1.187.594.406 2.562.188 2.188 1.406-.188 1.781-1.188.782L307.47 58l-1.781.188-1.782-.188-1.969 1.188 1.188.406h1.969l1.781.375.594 1-1.156 2.218 1.562 1.563 1.563.406 1.562-1h2.156l.594 1.188.781-.188 2.344-1.375 2.344 1.375L322.344 63h1.375l1.562 1.375 3.125-2.156 1.344.187 1.188.969 4.312.406.375 1.75 2.156-1.937h1.156l.782 2.531 3.719.969 1.062-.719h-.313L344 64.437l3.906-2.343-.594-3.719-3.718-.969.969-1v-2.718l2.937-2.157-.781-1.562-6.25-4.875-10.938.593-1.156 1.938H327l.188-6.844-3.125-3.687-2.344.375-1.375-1.563-3.906 1.75-1.344-1.343-2.75-.407-.781-2.531-.188-7.813-1.75-.78-.219-1.188h-1.156l-.406-2.344-2.531.219-4.875 1.562-2.344 2.907h-2.344L294.187 24l-.593-2.156-1.938-2.157h-2.75l-1.156-2.125V14.22l1.344-2.125-.781-2.938-2.532-5.094z" class="prefix__land prefix__departement59"/><path d="M328.406 62.219l-3.125 2.156L323.72 63h-1.375l-3.125 2.156-2.344-1.375-2.344 1.375-.781.188-.594-1.188H311l-1.563 1h-.062l.469 2.75-2.563 2.781v2.563l-1.781 2 .406 2.375.969 3.969 1.188 6.75-.375 5.937-.813 1.781 2.375 1.782-1.781.812-1.188 4.75-3.375.781-1.187 2 2.375.407.406 2.75-1.781.406.187 2.969.594-.188 1-1.594 2.375 1.594 1.406 1.594-.406 2.656 1.781 1.281.594 4.313 5.25 5.063 1.75.593 1 2.344 3.281.688.406-.5 1-2.125 2.938-1.375 1.563-4.094 1.75-1.188-1-1.375h-2.532l-.375-1.344 1.75-.78.781-1.188-1.75-1.156.563-1.782 4.5-.375-.781-1.75-2.719-1.781V105l3.688-2.75h4.125l-.407-1.938 2.344-1 3.313 2.157 1.375-.375-.188-6.656.594-2.344.781-2.719L340.687 88l.594-1.563 3.719-.78v-2.532l2.938-1.563.78-2.343-.968-1.563.188-2.937 1.75-1.563-1.75-3.312.53-3.469H344.5l-1.063.719-3.718-.969-.781-2.531h-1.157l-2.156 1.937-.375-1.75-4.313-.406-1.187-.969-1.344-.187z" class="prefix__land prefix__departement02"/><path d="M249.781 44.5l-.531 6.438 4.313 3.906v1.968l-5.282-3.124-6.344 7.812 1.688.719 2.156-.188.969 1.938 8.594 8.406.594 3.5 1.937 3.531-.656.813h2.469l.406.594v2.156l1.187.812 2.563-1h3.594l1.78 1.375 6.72-.594 4.968 1.407 2.781 2.781 3.563.375 3.563 1.188 4.375-4.157 5.156-1.375 2.781.375 4.125-.406-.375-2.156-.969-3.969-.406-2.375 1.781-2v-2.563l2.563-2.78-.469-2.75-1.5-.407-1.75-1.75h-4.688l-2.937 1.563v-1.376l-.75-1.374-1.781.78-2.156 1.188 1.187-1.75-.188-1.562-2.562-1.782v1.97h-1.75l-4.094-1.376-1.75-1.375-1.781 1.188-.563 1.562-.78.188-.97-.969v-2.75l2.907-1.938-1.156-1.968-2.344 1-1.188-1-4.875.593-2.531.97-2.563-.97v-1.937l-3.5-1.563-.968-2.343-1.375.562-3.719-2.906-1.75-.594-1.375 1.75-2.344.594-.969-2.156-3.03-.719z" class="prefix__land prefix__departement80"/><path d="M367.625 55.844l-1.969 2.906-1.75 1.781V64.625l-2.344 1.563-4.28 1.374-2.344.97-2.75-2.157h-3.72l-.53 3.469 1.75 3.312-1.75 1.563-.188 2.937.969 1.563-.781 2.344L345 83.124v2.531l-3.719.781-.594 1.563 2.563 1.375-.781 2.719-.594 2.344.125 4.874 4.75.126 4.156 2.593.781 1.188 2.188.594 3.188 2.374 2.562.188.594-.594h2.594l1.187 2.594h1.375l.813-1.188 4.75.188.78 1h.594l2-2 1.782 1.594s.24-.025.281-.031l-.125-.813 2.344-1.156 1.156-1.188-.75-1.937-.219-1.375 2.156-1.75.782-3.906-2.344-2.938.781-1.375 1.969-3.688.563.782h2.937L387 89.938l1.75-1.157 1.375-2.25-1.406-.219-.781-3.906-1.563-1.187-5.469-.594-.969-2.531-1.78-1.156-6.25-.782-.376-4.5.781-.781v-1.75l-3.125-1.969.594-2.156.781-1.938-1.375-1.187 2.157-1.938v-3.53l-.781-.563h-2.938z" class="prefix__land prefix__departement08"/><path d="M349.313 138.688l-3.97 2.187-3.374 2.375h-3.344l-5.563 3.781-4.75.781-3.375-3.562-.843.188v.593l-2.719 1.156-.188 2.344-1.375 1.781-.78 3.907-.438 3.281 1.219 1h2.343l5.063 5.281-.594 5.281 3.531 2.72 1.969-1.376 3.125 3.719.375 3.531 2.156 2.906.969 2.157 7.813.406 3.906-1.969 1.156 2.156 1.375.188 1-2.156 6.438-.188 2.53-1.375.407-2.531h5.656l.781.438-.656-2.5-1.594-1 2.188-1.97 3.375-.218 1.188-1.781-.22-7.125-.78-4.156-3.375-1.188-3.563-4.969.188-2.969 1.03-2.156-1.812-.625-5.562 1.188h-3.969l-3.563-5.344-.406-3.969-2.969-.219z" class="prefix__land prefix__departement10"/><path d="M379.094 139.719l-4.594.781-.594 4.938-4.156 2.968-2.156-.75-1.031 2.156-.188 2.97 3.563 4.968 3.375 1.188.78 4.156.22 7.125-1.188 1.781-3.375.219-2.188 1.969 1.594 1 .656 2.5 2.344 1.312 3.5 3.719 4.5 6.062-2.531 2.719 1.75 1.188.188 3.312 3.125-.188.78 1.563 2.344.188 1.75-.97 3.125 3.907.407.969 4.281-.969.813-1.969.187.031v-1.968l2.719-1.188 3.125 1.188 2.937-1.188h1.75l.594-3.906.969-1.156-1.75-.188-.188-2.344 2.719-.593.188-1.563h2.75v-2.531l2.156-.781-.594-1.563.594-.375-1.781-1.406-2.125.781v-4.094l-5.47-2.718 1.157-5.281 1.75-1.188-.563-1.75-2.562-.375-.563-2.563h-2.343l-2.75-3.687-3.125-.219-1.344-1.937 1.75-1.75-4.125-4.5-1.75-.594-4.688-2.344-2.53-2.719-4.094-.593-.094-3.75z" class="prefix__land prefix__departement52"/><path d="M480.719 112.281L477 113.312l-1.719 3v2.938l-1.562 1.375h-1.375l-2.531-1.781-1.97 1.375H465.5l-1.938-1.938-3.718-.594-2.156-.968-.782-2.938-1.75 1.938-.969 4.5-2.562.781v2.531l2.563 1.188 1.937 1.375-.781 1.75 1.781 1.156 3.125-2.344 5.438 3.125-2.313 4.313.188 1.375 1.562 1.562-1.188 4.094-3.906 3.906-2.156-.187 1.375 1.344-.781 3.53.781 5.282 3.719.969-.313.719 2.938-.157 1.719 2.094 1.53 1.906 3.844-.187 1.72 4.969 3 1.312-.032-.625 5.094-9.969-.594-5.656 2.344-7.625.594-6.656 5.062-3.688v-2.344l1.969-2.562h1.562l1.75-1.75-.375-3.313 1.75-4.687 2.719-.594-2.719-2.156-4.875-.563-4.312-2.156-2.938 1.75-1.562-1.75h-2.125z" class="prefix__land prefix__departement67"/><path d="M401.594 88.438l-2.344 2.156-3.313.187-1.156 1.188h-.25l-.125 2.344 1.156 1.906-.406 1.156-.375 1.344.188.75.969-.75.937-1.719 1.938-.188 3.25-.968 1.718 1.344.75 1.53.594 1.72v1.718l.938.781v1.313l-.938 1.156-.188 2.5.75 1.156.188 1.532.188 2.469 1.156.968 1.719.75-.75 1.531 2.093 1.938-1.906 2.094.375 1.344 1.906.937v.969h-2.281l-.969 1.344.188.968 1.531 1.531-1.313 3.626-1.53 3.437.75 2.125v3.438l.78 1.718h1.125l.594.969h-1.719l-1.53.75v1.156l1.906 1.719v2.688l1.906-.594 2.875.187.187 3.063 1.156.406-1.343.938-.188.968 2.094.375 1.344 1.719 6.312-.375 1.344-2.5h2.875l1.156-.938 1.906 1.157 1.72-.594 2.5.188 2.093-.75 2.094-1.532 1.156 1.156.188-2.687 1.53-.594.782 2.5 2.281.188 2.313.594.937.187 3.281-1.531 1.72-1.156 1.53-1.907 3.063-1.156 2-.438-1.125-1.093 2.156.187.406-.406-2.312-.75-3.25-2.281-2.875-2.125h-3.438l-3.625-2.094-2.875-.188v-.78l-4.406-2.657-4.969-2.125h-2.5l-.937-2.656-3.844-4.813h-3.812l-1.531-2.094H417l.188-3.062-4.032-2.5.188-2.469h2.125v-2.125l.75-1.531-1.719-1.719 1.531-2.656-1.156-3.063-.938-.78-2.5-5.344.97-1.532s-.08-1.257-.157-2.937h-2.625l-3.531-3.906h-4.5z" class="prefix__land prefix__departement54"/><path d="M307.5 116.5l-1.188.594-1.937 1.562-1.938-.594-3.343 1.376-2.719-1.563-1.188 1.563-1.75.187-1.187-.969-1.938-1.156-2.343 1.563-.094-.094-.844 5.406 1.156 6.875v4.594l-1.53 3.844.374 2.656-1.719 1.344.938 5.187-.75 1.125-.563 5.188 1.313 1.718-4.375 2.875v3.938l1.219 1.812 2.344 1.188.187 3.312-3.125 2.156 1.75 1.563 2.156-1.375 5.281.188 1.938-.375.594-1.563 2.156.188.375 1.562 4.875-2.75 1.781-2.125 2.344-2.75-1.563-1.75 1.375-2.938 3.5-1.75 7.625.375 1.75-1.343.157.156.437-3.281.781-3.906 1.375-1.782.188-2.344 2.719-1.156v-1.562l-2.906.187-.594-1.375.969-1.75-.782-2.937-1.562-.969.406-2.719 1.563-1-.22-1.156.563-.688-3.281-.687-1-2.344-1.75-.594-5.25-5.062-.594-4.313-2.156-1.562z" class="prefix__land prefix__departement77"/><path d="M465.594 156.531l-2.938.156-1.844 4.157-2.343 4.687.594 2.938-1.938 4.5-3.344 2.906-.187 7.625-2.438 2.094.094.062.781 1.563 3.125.187 3.531 2.75.563 1.344-.188 2.344-.968 1.781.375 2.344 2.75-.406.594 2.156.968 4.156 2.313-.375-.406 2.125 1.375 1.188 7.218-.188 3.719-2.938.188-4.312 1.968-2.531-2.562-2.938-1.344-3.125 1.563-2.125v-4.906l.968-2.344V177.5l1.75-2.531-1.937-2.719-.188-5.625-3-1.313-1.719-4.968-3.843.187-1.531-1.906-1.72-2.094z" class="prefix__land prefix__departement68"/><path d="M390.125 86.531l-1.375 2.25-1.75 1.156-1.375-1.343h-2.938l-.562-.781-1.969 3.687-.781 1.375 2.344 2.938-.781 3.906-2.157 1.75.219 1.375.75 1.937-1.156 1.188-2.344 1.156.375 2.156 1 .188-1.75 1.562 1.344 2.938 1.375 4.312-1.75 1.938 3.125-.188-1.563 4.875-2.156.969-1.188 2.938 1.188.968-1.375 2.344.406 1.563 3.719 2.937.188 6.844 4.093.594 2.531 2.718 4.688 2.344 1.75.594 4.125 4.5-.438.437 3.438-.437V152.5l3.844-.781v-1.313h.937v1.125l3.063-.937 1.187-1.594-.219.063v-2.688l-1.906-1.719V143.5l1.531-.75h1.72l-.594-.969h-1.125l-.782-1.719v-3.437l-.75-2.125 1.531-3.438 1.313-3.625-1.531-1.53-.188-.97.969-1.343h2.281v-.969l-1.906-.938-.375-1.343 1.906-2.094-2.094-1.938.75-1.53-1.718-.75-1.156-.97-.188-2.468-.188-1.531-.75-1.157.188-2.5.938-1.156v-1.313l-.938-.78v-1.72l-.594-1.718-.75-1.531-1.719-1.344-3.25.969-1.937.187-.938 1.719-.968.75-.188-.75.375-1.344.406-1.156-1.156-1.906.125-2.344h-.937l-.781-3.719-1.563-1.563-1.125-.156z" class="prefix__land prefix__departement55"/><path d="M423.094 90.406l-2.938.188-2.344 1.969-.593.968h-3.313l-1.156-1.187h-.5c.077 1.68.156 2.937.156 2.937l-.969 1.531 2.5 5.344.938.781 1.156 3.063-1.531 2.656 1.719 1.719-.75 1.531v2.125h-2.125l-.188 2.469 4.031 2.5-.187 3.063h3.063l1.53 2.093h3.813l3.844 4.813.938 2.656h2.5l4.968 2.125 4.406 2.656v.781l2.875.188 3.625 2.094H452l2.875 2.125 3.25 2.281 2.313.75 3.5-3.5 1.187-4.094-1.563-1.562-.187-1.375 2.313-4.313-5.438-3.125-3.125 2.344-1.781-1.156.781-1.75-1.938-1.375-2.562-1.188V121l2.563-.781.968-4.5 1.75-1.938.781 2.938 2.157.969 3.719.593 1.937 1.938h2.344l1.969-1.375 2.53 1.781h1.376l1.562-1.375v-2.938l1.719-3-.406.126-1.344-1.938-3.906-2.344-1.375-2.156-4.688.406-2.75 2.531-6.625.188-1.969-1.375c-.131-.24-1.093-1.936-1.937-2.406a2.073 2.073 0 00-.125-.063 1.097 1.097 0 00-.094-.031l-.062-.031h-.031c-.026-.002-.074 0-.094 0-.916 0-2.688-1.028-2.906-1.156l-2.75 1.156-.188 2.344-3.313.406-1.968-3.719-1.156-.406v-2.719l-2.75-1.188-.188-4.687-1.969-1.938-4.094-1.968h-1.937l-.594.406h-1.969l-2.718-2.344z" class="prefix__land prefix__departement57"/><path d="M459 145.938l-2 .437-3.063 1.156-1.53 1.906-1.72 1.157-3.28 1.531-.938-.188-2.313-.593-2.281-.188-.781-2.5-1.531.594-.188 2.688-1.156-1.157-2.094 1.531-2.094.75-2.5-.187-1.719.594-1.906-1.156-1.156.937h-2.875l-1.344 2.5-6.312.375-1.344-1.719-2.094-.375.188-.969 1.344-.937-1.157-.406-.187-3.063-2.875-.187-1.688.531-1.187 1.594-3.063.937v-1.125h-.937v1.313l-3.844.781v1.719l-3.438.437-1.312 1.313 1.344 1.937 3.125.219 2.75 3.688h2.344l.562 2.562 2.563.375.562 1.75-1.75 1.188-1.156 5.28 5.469 2.72v4.093l2.125-.781 1.78 1.406 1.344-.812-.75-1.156.97-.594 1.343 1.562 1.969-1.375.594-1.937 3.687-.594 1 .781-.188 2.156 2.532 1.938 1.562-.188 1.75-1.375h4.094l2.938 3.313h.968l1.563-.969.219-1.156 1.562-.781 1.75 1.156 1.75 1.969 6.156 3.25 2.438-2.094.187-7.625 3.344-2.906 1.938-4.5-.594-2.938 2.344-4.687 2.156-4.875-3.719-.969-.781-5.281.781-3.531-.25-.25z" class="prefix__land prefix__departement88"/><path d="M274.219 136.406l-1.75.781-1.906.75-.375 2.125-2.875 1.344-.375 2.094 1.343 2.313-1.937 2.656H263.5l1.125 1.719-1.344 1.53-.469 3.095.938.187.375 2.531.406.594.406 5.25 6.25-.563 2.532-2.343 2.156 1.75 5.25.375.75 1.125v-3.938l4.375-2.875-1.313-1.719.563-5.187.75-1.125-.938-5.188 1.72-1.343-.344-2.438-2.157-1h-3.625l-2.094-1.156-1.53.781-3.063-2.125z" class="prefix__land prefix__departement91"/><path d="M251.5 118.156l-.063.125-5.468 1.563-.781.969 1 1.562v1.563l1.75.374-1 1 .093.876.125-.094 1.938 1.937.594 2.344 1.562 1.563-.781 2.156v1.937l1.375 1.563-1.375 2.344 1.375 3.343 2.719 1.938.406 2.156 2.344.375.562 4.313 1.781 2.156 3.156.594.47-3.094 1.343-1.531-1.125-1.72h2.844l1.937-2.655-1.344-2.313.375-2.094 2.875-1.344.375-2.125 1.907-.75 1.75-.78.344.218v-.219l-1.75-1.969-1.094-2.968 1.75-3.813-.875-2.875-3.406-2.062-4.813-.219-4.5-2.875-3.625.656-4.75-2.125z" class="prefix__land prefix__departement78"/><path d="M255.563 109.688L254 111.624l-1.188 4.313-1.312 2.218 4.75 2.125 3.625-.656 4.5 2.875 4.813.219 3.406 2.062.875 2.875-.031.063.375-.063 3.5-1.875 5.25-.344 2.875-1.312 1.843-1.313.594-3.843-1.281-1.281-4.281-2.532-4.125-2.156-2.125.969-2.344.594-1.563-1.188-3.125-1.938-2.531 1.938-3.719.406-5.281-.406-1.188-1.938-.75-1.75z" class="prefix__land prefix__departement95"/><path d="M287.281 122.813l-1.844 1.312-2.875 1.313-5.25.343.157.719.437.094.406.625-.406.875-.531.094.375.906 2.531-.031.813 1.25.156 1.75.875-.125.813-.657 1.218.063 1.531.875.875.969.407.187.25.469.969.25v-2.844l-1.157-6.875.25-1.563z" class="prefix__land prefix__departement93"/><path d="M280.281 129.063l-2.531.03-1.125.5-.469.626-1.031.062-.938 1.063.032.594.219.687 1.562.438 1.906.968 1.219.063.813-.219.843-.594.281.25 1.813.25.313-.656v-.656l-.313-.125-1.25.062.094.313-.219.187h-.406l.156-.406.063-.438h-.063l-.156-1.75-.813-1.25z" class="prefix__land prefix__departement75"/><path d="M277.313 125.781l-3.5 1.875-.375.063-1.72 3.75 1.094 2.969 1.75 1.968v.219l2.72 1.906.656-.344-.5-.937.5-1.469-.313-.531.344-1.219h-.063l-1.906-.969-1.563-.437-.218-.688-.031-.593.937-1.063 1.031-.062.469-.625 1.125-.5-.375-.906.531-.094.406-.875-.406-.625-.437-.094-.156-.719z" class="prefix__land prefix__departement92"/><path d="M282.938 131.281l-.813.656-.813.125-.062.438-.156.406h.406l.219-.187-.094-.313 1.25-.062.313.125v.656l-.313.656-1.813-.25-.28-.25-.844.594-.813.219-1.156-.063-.344 1.219.313.531-.5 1.469.5.938.875-.438 2.093 1.156h3.625l2.156 1-.03-.219 1.53-3.843v-1.75l-.968-.25-.25-.469-.406-.188-.875-.968-1.532-.875-1.219-.063z" class="prefix__land prefix__departement94"/><path d="M447.406 199.719l-.187.219h-2.25l-1.156 1.593-1.47.844v1.969l-3.656.437-1.968-1.406-2.656.406-2.532 1.969-1.812 3.094-1.813.562-.844 2.094-2.25.406-3.093 2.531-4.063-.125-1.25.97h-1.125l-3.937 3.218-1.781-.063-.032 1.188.281 2.094 2.532 1.687 1.406 1.844-.438 1.938-1.25 2.968-.843 1.938 5.469 1.844 3.5-.282.28 2.938v3.937l4.344 1.406 1.97.532 2.812 2.687-.281 2.25-1.282 1.813-3.5 1.125.844 1.969.406 1.53-1.531 1.532.156 1.406 2.375.219.031-.188 12.094-11.343-.375-9.375 4.281-2.125 2.938-1.375 2.719-2.531.219-3.72 2.718-1.374 6.25-7.219-.969-2.344 2.157-.969 2.531-3.125-1.375-1.375-4.688.97-.187-.782 4.313-4.969-12.032-5.437z" class="prefix__land prefix__departement25"/><path d="M451.438 186.031l-1.813.938-1.531 1.125v2.5l.844 2.969v1.937l-.47 3.125-1.062 1.094 12.031 5.437.75-.875 2.594-.406-.969-4.156-.593-2.156-2.75.406-.375-2.344.969-1.781.187-2.344-.563-1.344-3.53-2.75-3.126-.187-.594-1.188z" class="prefix__land prefix__departement90"/></g></svg>